<svg width="100%" height="100%" viewBox="0 0 1663 1400" fill="none" xmlns="http://www.w3.org/2000/svg">
<path d="M108.096 445.435C180.001 351.537 305.255 290.562 335.409 282.215C530.48 228.427 722.072 98.5931 917.608 60.8022C1113.14 23.0112 1320.04 87.0008 1481.71 384.923C1568.46 544.897 1554.08 689.106 1456.2 763.76C1090.18 1043.6 699.805 1093.45 326.363 894.29C252.602 854.876 179.073 805.724 111.343 719.478C28.0727 614.219 51.4998 519.626 108.096 445.435Z" fill="#66BDFF"/>
<path d="M281.133 473.858C281.133 473.858 307.525 467.706 323.776 452.666C342.275 435.556 342.232 423.944 342.232 423.944L391.886 452.027C391.886 452.027 391.234 461.471 376.097 481.344C360.239 502.168 343.785 508.902 333.508 512.111C330.851 512.942 329.284 513.311 329.284 513.311L281.133 473.858Z" fill="#F2F2F2"/>
<path d="M1101.1 334.417C1101.1 334.417 1128.16 335.854 1147.95 325.934C1170.48 314.644 1173.67 303.481 1173.67 303.481L1213.55 344.264C1213.55 344.264 1210.29 353.162 1190.22 368.034C1169.2 383.623 1151.51 385.519 1140.75 385.738C1137.97 385.791 1136.36 385.718 1136.36 385.718L1101.1 334.417Z" fill="#F2F2F2"/>
<path d="M1218.02 413.961C1218.02 413.961 1225.64 439.959 1241.57 455.346C1259.7 472.851 1271.29 472.156 1271.29 472.156L1246.04 523.297C1246.04 523.297 1236.56 523.174 1215.87 509.184C1194.19 494.519 1186.54 478.477 1182.76 468.395C1181.78 465.791 1181.32 464.245 1181.32 464.245L1218.02 413.961Z" fill="#F2F2F2"/>
<g opacity="0.3">
<path opacity="0.3" d="M1019.89 804.268C1019.63 810.484 1019.19 822.857 1018.83 833.761H720.485V857.143H735.488V976.518C663.713 935.29 621.34 913.239 524.454 928.104C498.341 932.124 473.233 935.353 449.15 936.949C448.418 929.733 447.453 920.548 446.392 910.974C447.257 910.539 448.089 910.11 448.887 909.644C448.887 909.644 434.918 824.45 428.166 799.51L430.128 798.379C430.128 798.379 429.33 789.726 428.465 777.991C437.645 776.99 472.069 772.866 475.728 767.386C477.79 764.294 478.824 760.865 479.286 758.208L493.056 755.644L496.382 744.707L764.524 743.31V804.564C764.524 810.051 768.981 814.507 774.469 814.507H804.935L796.717 833.16H878.806V827.839H831.111L836.728 814.504H892.539C898.023 814.504 902.483 810.048 902.483 804.561V742.605L940.333 742.409L963.412 771.703C967.404 776.761 974.558 777.958 979.976 774.496C989.954 768.111 1005.92 757.772 1018.72 748.657C1019.56 768.417 1020.49 790.564 1019.89 804.268Z" fill="#FFBE55"/>
<path opacity="0.3" d="M343.848 800.913C336.029 822.99 327.651 862.829 335.8 921.725C335.8 921.725 338.194 922.058 342.382 922.487C342.548 924.416 342.714 926.418 342.881 928.443C307.655 918.363 275.493 899.475 246.523 867.352C180.801 794.492 196.3 663.773 344.278 610.962C343.147 631.746 344.743 640.994 342.315 653.231C341.783 655.356 341.384 657.056 341.118 658.186C341.048 658.485 340.985 658.785 340.885 659.114C340.885 659.18 340.852 659.284 340.852 659.347C340.054 662.14 339.056 665.133 337.792 668.492C336.727 671.285 336.362 673.31 336.561 674.707V674.74C332.204 680.629 328.512 691.57 324.92 710.591C321.328 729.609 319.133 750.729 320.796 754.018C321.428 755.318 325.186 755.721 329.543 755.721C336.295 755.721 344.477 754.753 344.477 754.753C346.672 754.623 349.104 754.39 351.661 754.124C353.823 769.654 341.683 800.245 341.683 800.245L343.848 800.913Z" fill="#FFBE55"/>
<path opacity="0.3" d="M1273.43 621.204C1188.85 588.153 1131.45 574.486 1082.75 463.915C1034.06 353.345 999.566 281.713 873.813 261.461C772.3 245.1 673.388 269.379 617.711 332.595L650.605 332.425L793.357 331.69L975.356 330.762C996.509 330.633 1013.77 347.722 1013.87 368.875L1015.6 703.708V704.702C1017.5 703.708 1019.66 702.91 1021.89 702.278C1028.18 696.555 1041.15 690.17 1052.06 688.211C1052.06 688.211 1052.06 688.245 1052.02 688.308C1052.32 688.211 1052.49 688.145 1052.49 688.145L1082.72 689.841C1082.72 689.841 1113.16 706.864 1120.14 711.19C1124.66 713.983 1120.24 737.228 1116.35 756.512C1154.46 758.278 1157.32 765.624 1157.32 765.624C1157.32 765.624 1152.86 798.183 1147.55 833.762H1216.86V857.143H1200.76V887.833C1222.78 875.233 1247.43 863.458 1275.46 853.215C1464.98 784.05 1377.03 661.675 1273.43 621.204ZM1092.59 642.091C1085.91 665.299 1080.29 667.823 1080.29 667.823C1074.17 674.175 1051.75 681.996 1046.77 681.494C1041.81 680.995 1037.98 664.398 1036.69 663.068C1035.42 661.705 1029.37 660.178 1030.2 658.113C1031 656.021 1037.29 643.182 1034.39 641.519C1031.93 640.089 1034.7 633.206 1036.55 629.252C1036.55 629.252 1022.22 614.786 1034.56 607.903C1069.78 588.216 1079.53 612.625 1082.25 613.326C1084.98 614.021 1100.34 615.052 1092.59 642.091Z" fill="#FFBE55"/>
<path opacity="0.3" d="M1092.59 642.091C1085.91 665.299 1080.29 667.823 1080.29 667.823C1074.17 674.175 1051.75 681.996 1046.77 681.494C1041.81 680.995 1037.98 664.398 1036.69 663.068C1035.42 661.704 1029.37 660.178 1030.2 658.113C1031 656.021 1037.29 643.182 1034.39 641.519C1031.93 640.089 1034.7 633.206 1036.55 629.252C1036.55 629.252 1022.22 614.786 1034.56 607.903C1069.78 588.216 1079.53 612.625 1082.25 613.326C1084.98 614.021 1100.34 615.052 1092.59 642.091Z" fill="#FFBE55"/>
<path opacity="0.3" d="M430.022 675.678C427.195 672.951 424.504 670.756 422.276 669.656C414.293 665.668 399.921 663.038 395.302 662.24L390.313 657.92C389.914 656.62 389.481 655.29 389.115 653.893C388.753 652.53 388.417 651.166 388.117 649.803C389.681 650.069 390.945 650.172 391.843 650.205C397.231 650.302 402.087 634.872 402.087 634.872C402.087 634.872 406.71 633.944 407.837 633.249C408.935 632.547 404.548 618.448 405.975 613.659C407.435 608.874 408.07 602.785 408.07 602.785C408.37 599.922 408.17 597.198 407.505 594.634C415.254 593.041 422.605 591.309 429.589 589.516L430.022 675.678Z" fill="#FFBE55"/>
<path opacity="0.3" d="M496.375 744.71L493.049 755.647L479.28 758.211C478.814 760.868 477.783 764.297 475.721 767.39C472.062 772.87 437.638 776.997 428.459 777.994C429.323 789.73 430.122 798.382 430.122 798.382L428.159 799.513C434.911 824.454 448.88 909.648 448.88 909.648C448.082 910.116 447.25 910.545 446.386 910.978C447.447 920.552 448.411 929.736 449.143 936.953C436.903 937.714 424.933 938.116 413.255 937.947C400.351 937.744 387.782 936.883 375.539 935.187C364.367 933.66 353.487 931.432 342.881 928.439C342.711 926.414 342.545 924.412 342.382 922.484C338.191 922.055 335.8 921.722 335.8 921.722C327.651 862.826 336.029 822.987 343.848 800.91L341.687 800.241C341.687 800.241 353.826 769.651 351.665 754.121C349.104 754.387 346.676 754.62 344.48 754.75C344.48 754.75 336.298 755.717 329.547 755.717C325.19 755.717 321.435 755.315 320.799 754.015C319.136 750.729 321.331 729.606 324.924 710.588C328.516 691.563 332.207 680.626 336.565 674.737V674.704C336.365 673.307 336.731 671.282 337.795 668.488C339.059 665.13 340.057 662.137 340.855 659.343C340.855 659.277 340.888 659.174 340.888 659.111C340.988 658.778 341.055 658.482 341.121 658.183C341.387 657.052 341.786 655.35 342.318 653.228C344.743 640.99 343.15 631.743 344.281 610.959C345.578 610.496 346.908 610.031 348.272 609.562C348.871 609.359 349.466 609.166 350.065 608.934C358.982 605.941 368.394 603.244 378.269 600.823C384.855 599.193 391.64 597.723 398.658 596.4C401.185 595.931 403.68 595.432 406.108 594.9C406.573 594.834 407.039 594.737 407.505 594.634C408.17 597.198 408.37 599.922 408.07 602.785C408.07 602.785 407.438 608.87 405.975 613.659C404.545 618.444 408.935 632.547 407.837 633.249C406.707 633.944 402.087 634.872 402.087 634.872C402.087 634.872 397.231 650.305 391.843 650.205C390.941 650.172 389.681 650.069 388.118 649.803C388.417 651.166 388.749 652.53 389.115 653.893C389.481 655.29 389.914 656.62 390.313 657.92L395.302 662.24C399.925 663.038 414.293 665.668 422.276 669.656C424.504 670.753 427.195 672.948 430.022 675.678V676.476L430.191 705.138V706.704C430.225 711.958 431.289 716.98 433.215 721.532C433.481 722.097 433.747 722.663 433.98 723.195C440.233 736.067 453.47 744.913 468.703 744.843L496.375 744.71Z" fill="#FFBE55"/>
<path opacity="0.3" d="M559.939 487.29V516.62C559.939 521.941 555.648 526.264 550.293 526.264H539.521C548.93 513.358 555.086 499.524 559.676 485.125C559.836 485.83 559.939 486.555 559.939 487.29Z" fill="#FFBE55"/>
<path opacity="0.3" d="M559.939 563.808V593.138C559.939 598.488 555.648 602.815 550.293 602.815H520.961C515.636 602.815 511.316 598.488 511.316 593.138V563.808C511.316 558.487 515.64 554.164 520.961 554.164H550.293C555.648 554.164 559.939 558.487 559.939 563.808Z" fill="#FFBE55"/>
<path opacity="0.3" d="M559.939 640.355V669.686C559.939 675.006 555.648 679.329 550.293 679.329H520.961C515.636 679.329 511.316 675.003 511.316 669.686V640.355C511.316 635.005 515.64 630.678 520.961 630.678H550.293C555.648 630.678 559.939 635.005 559.939 640.355Z" fill="#FFBE55"/>
<path opacity="0.3" d="M902.483 742.612V804.568C902.483 810.055 898.023 814.511 892.539 814.511H836.728L831.111 827.846H878.806V833.166H796.717L804.935 814.514H774.469C768.981 814.514 764.524 810.058 764.524 804.571V743.317L902.483 742.612Z" fill="#FFBE55"/>
<path opacity="0.3" d="M932.747 411.936H589.936V423.874H932.747V411.936Z" fill="#FFBE55"/>
<path opacity="0.3" d="M932.747 488.354H589.936V500.292H932.747V488.354Z" fill="#FFBE55"/>
<path opacity="0.3" d="M932.747 570.957H589.936V582.929H932.747V570.957Z" fill="#FFBE55"/>
<path opacity="0.3" d="M932.747 647.412H589.936V659.35H932.747V647.412Z" fill="#FFBE55"/>
<path opacity="0.3" d="M1216.85 833.765V857.146H1200.76V887.836C1196.3 890.363 1191.98 892.927 1187.75 895.521C1185.26 897.054 1182.83 898.581 1180.4 900.114C1130.24 932.101 1094.19 967.649 1060.13 996.381C1050.19 1004.76 1040.44 1012.57 1030.53 1019.56C1013.17 1031.8 995.409 1041.44 975.619 1047.09C964.879 1050.19 953.567 1052.08 941.361 1052.58C898.622 1054.34 845.376 1038.88 770.338 996.511C764.684 993.322 759.229 990.229 753.974 987.17C751.48 985.773 749.055 984.343 746.624 982.946C742.832 980.785 739.107 978.62 735.482 976.522V857.146H720.478V833.765H1018.82C1019.19 822.861 1019.62 810.487 1019.88 804.272C1020.48 790.568 1019.55 768.42 1018.72 748.667C1005.91 757.779 989.951 768.121 979.973 774.506C974.551 777.968 967.4 776.774 963.409 771.713L940.33 742.419L977.481 742.216C998.302 742.113 1015.2 725.386 1015.6 704.702C1017.49 703.708 1019.66 702.91 1021.88 702.278C1028.17 696.555 1041.14 690.17 1052.05 688.211C1052.05 688.211 1052.05 688.245 1052.02 688.308C1052.32 688.211 1052.48 688.145 1052.48 688.145L1082.72 689.841C1082.72 689.841 1113.15 706.864 1120.13 711.19C1124.66 713.983 1120.23 737.228 1116.34 756.512C1154.46 758.278 1157.32 765.624 1157.32 765.624C1157.32 765.624 1152.86 798.183 1147.54 833.762H1216.85V833.765Z" fill="#FFBE55"/>
</g>
<path opacity="0.7" d="M559.939 487.29V516.62C559.939 521.941 555.648 526.264 550.293 526.264H520.961C515.636 526.264 511.316 521.937 511.316 516.62V487.29C511.316 481.969 515.64 477.646 520.961 477.646H550.293C554.883 477.646 558.708 480.842 559.673 485.128C559.836 485.83 559.939 486.555 559.939 487.29Z" fill="#FFBE55"/>
<path opacity="0.7" d="M559.939 411.337V440.667C559.939 446.018 555.648 450.344 550.293 450.344H520.961C515.636 450.344 511.316 446.018 511.316 440.667V411.337C511.316 406.017 515.64 401.694 520.961 401.694H550.293C555.648 401.694 559.939 406.02 559.939 411.337Z" fill="#FFBE55"/>
<path opacity="0.7" d="M559.939 563.808V593.138C559.939 598.488 555.648 602.815 550.293 602.815H520.961C515.636 602.815 511.316 598.488 511.316 593.138V563.808C511.316 558.487 515.64 554.164 520.961 554.164H550.293C555.648 554.164 559.939 558.487 559.939 563.808Z" fill="#FFBE55"/>
<path opacity="0.7" d="M559.939 640.355V669.686C559.939 675.006 555.648 679.329 550.293 679.329H520.961C515.636 679.329 511.316 675.003 511.316 669.686V640.355C511.316 635.005 515.64 630.678 520.961 630.678H550.293C555.648 630.678 559.939 635.005 559.939 640.355Z" fill="#FFBE55"/>
<path opacity="0.6" d="M1013.87 368.875C1013.77 347.722 996.506 330.633 975.353 330.762L793.354 331.69L650.602 332.425L617.708 332.595L466.604 333.356C445.421 333.493 428.355 350.718 428.455 371.905L429.586 589.516L430.018 675.678V676.476L430.188 705.138V706.704C430.221 711.958 431.286 716.98 433.211 721.532C433.477 722.097 433.744 722.663 433.976 723.195C440.229 736.067 453.467 744.913 468.7 744.843L496.369 744.714L764.511 743.317L902.473 742.615L940.323 742.419L977.475 742.216C998.295 742.113 1015.19 725.386 1015.59 704.702V703.708L1013.87 368.875ZM559.939 669.689C559.939 675.009 555.648 679.333 550.293 679.333H520.961C515.636 679.333 511.316 675.006 511.316 669.689V640.359C511.316 635.008 515.64 630.682 520.961 630.682H550.293C555.648 630.682 559.939 635.008 559.939 640.359V669.689ZM559.939 593.138C559.939 598.488 555.648 602.815 550.293 602.815H520.961C515.636 602.815 511.316 598.488 511.316 593.138V563.808C511.316 558.487 515.64 554.164 520.961 554.164H550.293C555.648 554.164 559.939 558.49 559.939 563.808V593.138ZM559.939 516.62C559.939 521.941 555.648 526.264 550.293 526.264H520.961C515.636 526.264 511.316 521.937 511.316 516.62V487.29C511.316 481.969 515.64 477.646 520.961 477.646H550.293C554.883 477.646 558.708 480.842 559.673 485.128C559.839 485.83 559.939 486.558 559.939 487.29V516.62ZM559.939 440.671C559.939 446.021 555.648 450.348 550.293 450.348H520.961C515.636 450.348 511.316 446.021 511.316 440.671V411.341C511.316 406.02 515.64 401.697 520.961 401.697H550.293C555.648 401.697 559.939 406.023 559.939 411.341V440.671ZM932.747 659.347H589.936V647.409H932.747V659.347ZM932.747 582.929H589.936V570.957H932.747V582.929ZM932.747 500.292H589.936V488.354H932.747V500.292ZM932.747 423.874H589.936V411.936H932.747V423.874Z" fill="#FFBE55"/>
<path opacity="0.7" d="M932.747 411.936H589.936V423.874H932.747V411.936Z" fill="#FFBE55"/>
<path opacity="0.7" d="M932.747 488.354H589.936V500.292H932.747V488.354Z" fill="#FFBE55"/>
<path opacity="0.7" d="M932.747 570.957H589.936V582.929H932.747V570.957Z" fill="#FFBE55"/>
<path opacity="0.7" d="M932.747 647.412H589.936V659.35H932.747V647.412Z" fill="#FFBE55"/>
<path d="M932.747 411.936H589.936V423.874H932.747V411.936Z" fill="white"/>
<path d="M932.747 488.354H589.936V500.292H932.747V488.354Z" fill="white"/>
<path d="M932.747 570.957H589.936V582.929H932.747V570.957Z" fill="white"/>
<path d="M932.747 647.412H589.936V659.35H932.747V647.412Z" fill="white"/>
<path d="M559.939 411.337V440.667C559.939 446.018 555.648 450.344 550.293 450.344H520.961C515.636 450.344 511.316 446.018 511.316 440.667V411.337C511.316 406.017 515.64 401.694 520.961 401.694H550.293C555.648 401.694 559.939 406.02 559.939 411.337Z" fill="#FFBE55"/>
<path d="M559.939 563.808V593.138C559.939 598.488 555.648 602.815 550.293 602.815H520.961C515.636 602.815 511.316 598.488 511.316 593.138V563.808C511.316 558.487 515.64 554.164 520.961 554.164H550.293C555.648 554.164 559.939 558.487 559.939 563.808Z" fill="#FFBE55"/>
<path d="M533.969 590.241L520.469 578.513C519.362 577.545 519.248 575.876 520.206 574.765C521.164 573.661 522.841 573.544 523.951 574.505L533.494 582.799L547.077 567.615C548.045 566.518 549.721 566.428 550.819 567.402C551.916 568.383 552.013 570.059 551.028 571.157L533.969 590.241Z" fill="white"/>
<path d="M559.939 487.29V516.62C559.939 521.941 555.648 526.264 550.293 526.264H520.961C515.636 526.264 511.316 521.937 511.316 516.62V487.29C511.316 481.969 515.64 477.646 520.961 477.646H550.293C554.883 477.646 558.708 480.842 559.673 485.128C559.836 485.83 559.939 486.555 559.939 487.29Z" fill="#FFBE55"/>
<path d="M533.969 513.707L520.469 501.985C519.362 501.017 519.248 499.341 520.206 498.237C521.164 497.126 522.841 497.01 523.951 497.971L533.494 506.265L547.077 491.081C548.045 489.99 549.721 489.9 550.819 490.875C551.916 491.856 552.013 493.532 551.028 494.616L533.969 513.707Z" fill="white"/>
<path d="M559.939 640.355V669.686C559.939 675.006 555.648 679.329 550.293 679.329H520.961C515.636 679.329 511.316 675.003 511.316 669.686V640.355C511.316 635.005 515.64 630.678 520.961 630.678H550.293C555.648 630.678 559.939 635.005 559.939 640.355Z" fill="#FFBE55"/>
<path d="M533.969 666.772L520.469 655.05C519.362 654.089 519.248 652.413 520.206 651.296C521.164 650.192 522.841 650.076 523.951 651.037L533.494 659.33L547.077 644.146C548.045 643.056 549.721 642.966 550.819 643.944C551.916 644.918 552.013 646.594 551.028 647.678L533.969 666.772Z" fill="white"/>
<path d="M529.958 429.727C529.958 429.098 529.988 428.493 530.078 427.914C530.154 427.336 530.314 426.79 530.547 426.252C530.78 425.713 531.122 425.214 531.555 424.745C531.997 424.276 532.576 423.854 533.284 423.472C533.643 423.276 534.119 423.023 534.708 422.707C535.306 422.401 535.882 422.032 536.44 421.623C536.999 421.214 537.485 420.732 537.897 420.193C538.31 419.661 538.523 419.069 538.523 418.414C538.523 417.513 538.183 416.804 537.531 416.295C536.866 415.777 536.118 415.531 535.26 415.531C534.721 415.531 534.222 415.634 533.803 415.843C533.381 416.046 532.991 416.299 532.656 416.578C532.306 416.871 532.01 417.197 531.764 417.553C531.525 417.902 531.298 418.221 531.112 418.5L526.872 415.531C527.59 413.855 528.721 412.554 530.271 411.62C531.817 410.692 533.57 410.23 535.513 410.23C536.557 410.23 537.601 410.373 538.636 410.672C539.677 410.985 540.618 411.464 541.43 412.115C542.268 412.771 542.93 413.622 543.455 414.669C543.971 415.707 544.237 416.974 544.237 418.457C544.237 420.017 543.907 421.333 543.265 422.388C542.624 423.442 541.672 424.37 540.408 425.161C539.836 425.55 539.244 425.896 538.659 426.195C538.077 426.501 537.528 426.814 537.033 427.143C536.547 427.476 536.148 427.845 535.842 428.254C535.546 428.663 535.386 429.155 535.386 429.734H529.958V429.727ZM530.078 439.806V433.631H535.466V439.806H530.078Z" fill="white"/>
<path d="M1210.9 726.657C1210.9 726.657 1219.29 725.2 1219.14 721.791C1218.97 718.376 1220.41 713.724 1220.93 712.284C1221.64 710.362 1221.71 703.548 1224.03 704.516C1226.34 705.49 1224.41 715.772 1224.42 718.02C1224.42 720.275 1231.69 713.973 1233.9 713.953C1236.1 713.933 1245.49 727.528 1240.02 731.222C1234.55 734.924 1226.33 734.99 1225.49 735.841C1224.66 736.693 1217.42 739.549 1217.42 739.549L1210.9 726.657Z" fill="#EEA886"/>
<path d="M1232.42 714.489C1232.42 714.489 1249.9 704.363 1251.61 704.739C1253.33 705.108 1253.81 706.155 1252.22 707.173C1250.62 708.194 1235.61 717.488 1235.61 717.488C1235.61 717.488 1258.26 709.241 1259.72 709.215C1260.58 709.201 1261.63 711.183 1260.82 711.812C1260.01 712.44 1238.02 721.991 1238.02 721.991C1238.02 721.991 1259.19 714.333 1260.42 714.705C1261.51 715.031 1262.04 717.096 1260.51 717.778C1258.98 718.459 1239.73 726.753 1239.73 726.753C1239.73 726.753 1255.49 722.22 1256.38 723.181C1256.92 723.773 1257.89 725.436 1253.79 726.474C1249.69 727.508 1240.27 731.033 1240.27 731.033L1232.42 714.489Z" fill="#EEA886"/>
<path d="M1105.76 943.899L1140.07 1086.96H1147.63L1118.53 943.587L1105.76 943.899Z" fill="#858585"/>
<path d="M1068.31 943.899L1102.64 1086.96H1110.2L1081.09 943.587L1068.31 943.899Z" fill="#858585"/>
<path d="M1026.48 943.899L992.169 1086.96H984.603L1013.7 943.587L1026.48 943.899Z" fill="#858585"/>
<path d="M1157.32 765.624C1157.32 765.624 1152.86 798.183 1147.54 833.762C1147.08 836.788 1146.61 839.814 1146.15 842.873V842.906C1145.51 847.063 1144.88 851.22 1144.25 855.343C1144.15 855.942 1144.05 856.537 1143.95 857.143C1142.62 865.722 1141.29 874.102 1139.96 881.88C1138.46 890.856 1137.03 899.006 1135.74 905.724C1135.07 909.049 1134.47 912.012 1133.91 914.536C1132.54 920.518 1131.08 925.31 1129.55 929.201C1123.39 945.126 1116.71 945.296 1116.71 945.296H968.834C967.803 931.13 971.764 907.32 971.764 907.32L973.427 905.158L1010.45 857.143L1011.84 855.343L1018.42 846.797V846.764L1023.85 839.751L1026.71 836.056L1028.47 833.765L1028.96 833.136L1031.66 829.608L1088.17 756.319C1099.21 756.086 1108.52 756.216 1116.34 756.515C1154.46 758.278 1157.32 765.624 1157.32 765.624Z" fill="#E2D2CA"/>
<path d="M1021.13 854.988L1040.4 851.626L1027.55 819.273L1021.13 854.988Z" fill="#24263D"/>
<path d="M943.42 1072.77C943.42 1072.77 930.751 1080.29 925.02 1083.1C919.273 1085.9 896.956 1086.76 894.754 1088.86C892.555 1090.96 893.377 1097.63 897.072 1098.29C900.777 1098.97 927.917 1101.35 936.967 1099.21C946.014 1097.07 962.953 1100.59 966.702 1099.31C970.447 1098.03 967.976 1077.82 966.516 1073.29C965.056 1068.76 943.42 1072.77 943.42 1072.77Z" fill="#0E538C"/>
<path d="M943.619 1064.21L943.42 1072.76C943.42 1072.76 960.393 1075.89 966.519 1073.29L966.093 1063.9L943.619 1064.21Z" fill="#1C1E30"/>
<path d="M1101.08 871.791C1101.08 871.791 1004.2 892.355 989.083 898.777C973.966 905.195 964.896 907.845 963.765 911.051C962.624 914.267 939.01 1067.87 939.01 1067.87H971.135C971.135 1067.87 996.077 951.864 999.1 944.681C1002.12 937.505 1121.93 937.122 1130.62 928.429C1139.31 919.74 1146.87 895.937 1137.43 874.588C1127.98 853.239 1101.08 871.791 1101.08 871.791Z" fill="#282B45"/>
<path d="M1061.54 1078.83C1061.54 1078.83 1050.17 1088.21 1044.93 1091.86C1039.69 1095.51 1017.76 1099.76 1015.91 1102.18C1014.05 1104.59 1015.89 1111.06 1019.65 1111.16C1023.42 1111.25 1050.59 1109.46 1059.21 1105.96C1067.83 1102.47 1085.1 1103.35 1088.61 1101.51C1092.12 1099.67 1086.59 1080.08 1084.45 1075.83C1082.31 1071.56 1061.54 1078.83 1061.54 1078.83Z" fill="#0E538C"/>
<path d="M1060.43 1070.35L1061.54 1078.83C1061.54 1078.83 1078.8 1079.32 1084.45 1075.83L1082.59 1066.61L1060.43 1070.35Z" fill="#0E538C"/>
<path d="M1107.14 857.475C1107.14 857.475 1002.14 905.344 995.332 920.854C988.407 936.65 1056.62 1074.64 1056.62 1074.64L1087.99 1069.79C1087.99 1069.79 1036.7 938.545 1039.51 931.991C1042.32 925.437 1208.67 905.62 1170.28 861.476C1131.9 817.317 1107.14 857.475 1107.14 857.475Z" fill="#282B45"/>
<path d="M1106.68 709.561C1111.72 706.943 1128.53 712.68 1133.49 720.408C1145.04 738.379 1166.84 760.579 1166.84 760.579L1215.47 719.7L1225.22 744.068L1167.5 792.716C1162.58 796.859 1155.32 796.607 1150.7 792.124C1135.54 777.406 1104.33 746.453 1101.92 738.711C1098.73 728.469 1097.04 714.569 1106.68 709.561Z" fill="#0B4870"/>
<path d="M1116.35 756.512C1114.21 767.157 1112.22 776.601 1112.02 780.724C1111.69 787.172 1105.33 812.615 1099.82 833.761C1097.89 841.114 1096.05 847.961 1094.62 853.285L1094.06 855.343L1093.59 857.142H1093.56L1091.59 864.422L1058.5 857.142L1050.35 855.343L1036.52 852.284L1029.8 850.824C1030.2 849.394 1030.06 845.7 1029.66 840.615C1029.5 838.55 1029.27 836.226 1029.03 833.761C1029 833.559 1028.96 833.333 1028.96 833.133C1028.63 830.01 1028.23 826.652 1027.8 823.157V823.123C1027.67 822.089 1027.57 821.025 1027.4 819.928C1025.81 806.959 1023.88 792.862 1022.81 783.751C1021.88 775.67 1020.88 761.637 1020.32 747.504C1019.55 727.518 1019.62 707.396 1021.95 703.838C1022.38 703.176 1023.08 702.474 1023.97 701.746C1030.72 696.322 1048.88 689.478 1052.01 688.308C1052.31 688.211 1052.48 688.145 1052.48 688.145L1082.71 689.841C1082.71 689.841 1113.15 706.864 1120.13 711.19C1124.66 713.983 1120.24 737.228 1116.35 756.512Z" fill="white"/>
<path d="M1091.61 864.425L1094.63 853.275L1029.68 840.628L1029.82 850.821L1091.61 864.425Z" fill="#1F2136"/>
<path d="M1059.3 845.82L1043.89 842.604V854.788L1059.3 858.38V845.82Z" fill="#4F558A"/>
<path d="M1066.2 814.092C1066.37 817.281 1066.57 820.516 1066.74 823.782L1066.78 823.822C1068.98 859.68 1072.25 897.194 1072.25 897.194C1076.76 900.962 1134 887.666 1134 887.666C1134 887.666 1126.95 878.106 1120.16 851.606C1113.33 825.145 1118.67 799.723 1125.75 756.668C1132.79 713.608 1126.95 713.847 1126.95 713.847L1082.73 689.834C1079.83 700.848 1068.1 740.806 1065.33 763.702C1064.34 772.062 1064.96 792.067 1066.2 814.092Z" fill="#0B4870"/>
<path d="M1052.05 688.211C1052.05 688.211 1052.05 688.245 1052.02 688.308C1051.62 689.309 1048.23 698.251 1044.3 711.123C1042.41 717.339 1040.41 724.458 1038.55 732.037C1038.55 732.037 1038.55 732.07 1038.52 732.07C1036.69 739.519 1034.99 747.47 1033.73 755.415C1030.77 773.638 1029.47 799.679 1028.01 820.43C1027.94 821.358 1027.87 822.229 1027.81 823.127V823.16C1027.54 826.954 1027.24 830.506 1026.94 833.765C1026.87 834.563 1026.81 835.331 1026.71 836.056C1025.68 846.564 1024.38 853.651 1022.39 854.15C1021.95 854.246 1021.55 854.346 1021.22 854.449C1016.6 855.546 1018.19 854.652 1018.19 854.652C1018.19 854.652 1018.29 851.523 1018.42 846.801V846.767C1018.56 843.143 1018.69 838.623 1018.82 833.765C1019.19 822.861 1019.62 810.487 1019.89 804.272C1020.49 790.568 1019.55 768.42 1018.72 748.667C1017.82 728.086 1014.36 706.963 1015.6 703.708C1016.13 702.304 1014.37 703.904 1016.13 702.304C1022.42 696.591 1041.14 690.173 1052.05 688.211Z" fill="#0B4870"/>
<path d="M1053.12 683.004C1053.12 685.036 1052.95 686.901 1052.5 688.142C1052.5 688.142 1055.89 701.39 1082.73 689.838C1082.73 689.838 1077.42 670.088 1082.73 653.524L1052.5 672.283C1052.5 672.283 1052.87 675.262 1053.03 678.744C1053.12 680.144 1053.16 681.64 1053.12 683.004Z" fill="#EEA987"/>
<path d="M1081.63 684.587C1081.63 684.587 1071.09 689.685 1060.44 690.672L1065.63 701.699L1082.73 689.848L1081.63 684.587Z" fill="#D3D3D3"/>
<path d="M1060.44 690.672C1060.44 690.672 1053.02 688.218 1053.07 684.587L1052.06 688.225L1055.09 699.864L1060.44 690.672Z" fill="#D3D3D3"/>
<path d="M1060.44 690.672L1056.56 697.336C1056.56 697.336 1058.36 699.388 1064.12 698.5L1060.44 690.672Z" fill="#FFBE55"/>
<path d="M1057.4 697.915C1057.4 697.915 1041.53 744.574 1041.41 777.705C1041.28 810.829 1043.89 830.606 1043.89 830.606L1047.39 837.127L1052.49 831.171C1052.49 831.171 1048.89 734.98 1063 698.637C1063 698.637 1057.98 696.246 1057.4 697.915Z" fill="#FFBE55"/>
<path d="M1053.03 678.741C1053.11 680.144 1053.15 681.637 1053.11 683C1074.44 683.34 1074.77 671.159 1074.77 671.159C1071.46 679.981 1053.03 678.741 1053.03 678.741Z" fill="#A77860"/>
<path d="M929.664 695.162C929.664 695.162 924.398 684.7 923.55 683.133C922.699 681.561 918.545 679.392 913.576 677.347C908.613 675.315 901.097 675.036 900.362 675.638C899.626 676.237 898.632 676.456 897.887 678.924C897.135 681.384 897.717 683.932 897.717 683.932C897.717 683.932 895.509 686.479 896.437 689.555C896.437 689.555 894.455 692.056 896.034 695.361C896.034 695.361 894.158 697.862 895.486 700.153C895.486 700.153 899.64 702.341 900.98 703.648C902.307 704.955 911.247 708.839 920.327 711.104C920.331 711.107 929.547 710.023 929.664 695.162Z" fill="#EEA886"/>
<path d="M929.664 695.161C929.664 695.161 939.708 705.178 939.482 707.572C939.103 711.526 934.224 723.068 933.974 722.836C933.721 722.603 918.249 710.561 918.249 710.561L929.664 695.161Z" fill="#EEA886"/>
<path d="M1034.2 731.768C1034.2 731.768 1034.2 731.801 1034.17 731.801C1032.5 734.724 1025.22 740.577 1015.97 747.228C1015.44 747.63 1014.91 747.992 1014.38 748.398C1001.57 757.503 985.61 767.852 975.632 774.237C970.211 777.692 963.06 776.498 959.069 771.443L935.99 742.143L912.342 712.148L913.639 710.186L924.618 693.525L926.813 690.233L966.193 740.081C966.193 740.081 992.036 722.719 1006.97 707.456C1008.1 706.292 1009.56 705.294 1011.26 704.429C1013.16 703.429 1015.32 702.63 1017.55 702.002C1018.25 701.799 1018.94 701.639 1019.64 701.47C1026.2 700.04 1032.91 700.21 1035.41 702.235C1038.2 704.496 1039.6 707.489 1039.96 710.847C1040.79 717.498 1037.66 725.479 1034.2 731.768Z" fill="#0B4870"/>
<path d="M912.568 691.589L915.286 689.719L893.14 657.544L890.422 659.414L912.568 691.589Z" fill="#EB4747"/>
<path d="M893.197 657.531L888.588 653.717L890.467 659.393L893.197 657.531Z" fill="#EEA886"/>
<path d="M901.689 676.117C901.689 676.117 914.161 681.61 913.622 683.955C913.077 686.293 911.607 686.788 911.607 686.788L915.834 691.64C915.834 691.64 916.998 696.601 911.803 696.545C911.803 696.545 913.333 701.057 908.314 700.346C908.314 700.346 908.131 703.814 905.756 703.944C903.381 704.067 895.489 700.156 895.489 700.156C895.489 700.156 894.155 698.5 896.038 695.364C896.038 695.364 894.365 692.292 896.44 689.558C896.44 689.558 895.449 686.868 897.721 683.935C897.721 683.935 895.925 677.753 900.365 675.641C900.361 675.638 901.156 675.884 901.689 676.117Z" fill="#D69779"/>
<path d="M923.178 682.904C923.178 682.904 914.028 683.892 909.242 686.865C908.168 687.533 907.233 688.404 907.393 689.781C907.549 691.158 909.535 692.651 913.519 692.451C917.497 692.255 922.742 694.031 922.742 694.031C922.742 694.031 926.78 692.485 923.178 682.904Z" fill="#EEA886"/>
<path d="M934.057 946.693C934.057 946.693 940.852 904.32 941.208 902.604C941.571 900.888 948.482 894.713 981.506 883.892C981.506 883.892 944.794 891.028 935.168 897.297C927.748 902.129 934.057 946.693 934.057 946.693Z" fill="#12131F"/>
<path d="M753.964 868.206H746.61V1109.58H753.964V868.206Z" fill="#0E538C"/>
<path d="M1187.76 868.206H1180.4V1109.58H1187.76V868.206Z" fill="#0E538C"/>
<path d="M1200.76 855.347H735.485V1074.03H1200.76V855.347Z" fill="#CCE9FF"/>
<path d="M1216.85 833.166H720.481V856.547H1216.85V833.166Z" fill="#0E538C"/>
<path d="M756.758 1104.83H743.82V1109.58H756.758V1104.83Z" fill="#0E538C"/>
<path d="M1190.29 1104.83H1177.87V1109.58H1190.29V1104.83Z" fill="#0E538C"/>
<path d="M902.483 725.024V804.568C902.483 810.055 898.023 814.511 892.539 814.511H774.466C768.978 814.511 764.521 810.055 764.521 804.568V725.024C764.521 719.537 768.978 715.081 774.466 715.081H892.539C898.023 715.081 902.483 719.537 902.483 725.024Z" fill="#F7F7F7"/>
<path d="M855.018 827.846V833.166H796.713L804.932 814.514L819.663 781.057L820.228 779.757H851.426L836.828 814.311L836.725 814.514L831.107 827.846H855.018Z" fill="#F7F7F7"/>
<path d="M849.63 779.757L849.031 781.227L834.929 814.514L827.046 833.166H796.813L805.028 814.514L819.733 781.057L820.298 779.757H849.63Z" fill="#F2F2F2"/>
<path d="M878.802 827.846V833.166H829.045L831.107 827.846H878.802Z" fill="#D3D3D3"/>
<path d="M836.758 814.318L851.429 779.597V814.318H836.758Z" fill="#D3D3D3"/>
<path d="M823.142 795.898C824.768 791.702 828.669 789.158 832.494 789.474C832.185 789.291 831.862 789.134 831.523 789.005C827.103 787.296 821.958 789.953 820.029 794.947C818.089 799.942 820.105 805.379 824.525 807.085C825.227 807.358 825.949 807.507 826.671 807.567C822.945 805.485 821.356 800.511 823.142 795.898Z" fill="white"/>
<path d="M829.075 807.381C832.039 806.719 834.743 804.458 836.027 801.146C837.443 797.481 836.728 793.597 834.51 791.103C834.181 790.734 833.825 790.388 833.432 790.089C833.136 789.863 832.824 789.653 832.501 789.47C828.676 789.151 824.775 791.698 823.148 795.895C821.362 800.507 822.949 805.482 826.677 807.567C826.953 807.587 827.219 807.6 827.489 807.594C828.018 807.584 828.546 807.497 829.075 807.381Z" fill="#D3D3D3"/>
<path d="M1320.52 588.539C1320.52 588.539 1314.25 589.377 1314.31 586.72C1314.35 584.069 1314.78 580.608 1314.78 580.608L1320.52 588.539Z" fill="#EEA987"/>
<path d="M1355.78 559.767L1335.19 575.693C1337.81 575.2 1342.2 574.562 1342.31 575.939C1342.45 577.894 1334.48 580.258 1331.96 582.038C1329.64 583.674 1327.21 586.583 1326.56 586.72L1322.06 590.577L1314.78 580.608C1314.78 580.608 1326.8 567.007 1329.7 564.11C1334.41 559.395 1353.46 556.621 1354.5 557.31C1356.38 558.547 1355.78 559.767 1355.78 559.767Z" fill="#EEA987"/>
<path d="M1330.36 591.249L1313.75 577.182L1256.8 634.729C1247.88 640.854 1274.19 661.974 1281.62 666.586C1300.71 678.421 1323.23 705.803 1346.59 689.103C1371.91 670.996 1335.05 658.11 1322.76 658.426C1312.1 658.698 1288.9 637.752 1288.9 637.752L1330.36 591.249Z" fill="#FFBE55"/>
<path d="M1300.3 1107.6C1300.3 1107.6 1290.84 1117.53 1281.24 1119.61C1271.63 1121.69 1255.06 1128.78 1254.98 1134.48C1254.9 1140.18 1292.48 1139.5 1303.47 1133.76C1319.88 1125.18 1321.55 1127.76 1323.37 1123.48C1325.19 1119.2 1321.18 1107.72 1321.3 1106.36C1321.45 1104.68 1300.3 1107.6 1300.3 1107.6Z" fill="#0B4870"/>
<path d="M1301.37 1102.84C1301.37 1102.84 1300.11 1107.49 1300.3 1107.6C1300.49 1107.7 1321.95 1110.1 1321.3 1106.37C1320.77 1103.33 1320.02 1100.04 1320.02 1100.04L1301.37 1102.84Z" fill="#2F6B8C"/>
<path d="M1407.19 1110.18C1407.19 1110.18 1400.23 1119.86 1390.92 1122.09C1381.74 1124.3 1368.15 1132.89 1367.7 1138.43C1367.26 1143.96 1396.99 1146.81 1412.51 1137.09C1422.71 1130.69 1426.51 1131.06 1428.57 1126.99C1430.62 1122.93 1427.49 1111.54 1427.7 1110.22C1427.95 1108.6 1407.19 1110.18 1407.19 1110.18Z" fill="#0B4870"/>
<path d="M1407.47 1105.4C1407.47 1105.4 1407.02 1110.08 1407.19 1110.18C1407.37 1110.29 1427.82 1113.9 1427.7 1110.22C1427.6 1107.29 1426.39 1103.65 1426.39 1103.65L1407.47 1105.4Z" fill="#2F6B8C"/>
<path d="M1323.01 823.333C1323.01 823.333 1313.07 895.518 1309.01 919.92C1304.27 948.445 1302.66 972.016 1301.33 986.791C1299.67 1005.36 1297.47 1100.4 1296.3 1105.84C1295.13 1111.26 1325.24 1108.44 1325.24 1108.44C1325.24 1108.44 1341.02 984.536 1345.98 964.753C1350.6 946.34 1364.04 866.783 1368.25 871.811C1372.46 876.839 1385.36 966.961 1388.48 981.483C1391.6 996.005 1399.96 1110.36 1399.96 1110.36C1399.96 1110.36 1428.37 1114.91 1434.09 1110.36C1434.09 1110.36 1429.6 1008.39 1427.62 981.164C1426.86 970.779 1434.18 856.91 1416.63 810.989C1407.36 786.727 1323.01 823.333 1323.01 823.333Z" fill="#0E538C"/>
<path d="M1355.5 650.222C1355.5 650.222 1329.21 655.659 1326.08 658.426C1322.7 661.369 1316.72 690.16 1316.36 698.188C1316 706.215 1319.53 739.722 1322.92 752.199C1326.31 764.676 1318.48 818.046 1316.34 835.334C1316.34 835.334 1374.87 846.318 1426.93 839.544C1426.93 839.544 1419.83 787.033 1421.91 769.937C1424.59 748.029 1431 697.549 1431 697.549C1431 697.549 1431.05 669.14 1427.02 664.601C1418.39 654.851 1385.18 650.222 1385.18 650.222H1355.5Z" fill="#FFBE55"/>
<path d="M1391.66 702.91C1392.9 728.914 1401.18 735.236 1409.33 733.214C1411.89 732.586 1414.4 731.129 1416.61 729.207C1420.07 726.194 1422.79 722.024 1423.76 718.06C1427.33 703.578 1427.36 663.633 1409.08 658.495C1409.08 658.499 1389.26 652.087 1391.66 702.91Z" fill="#FFBE55"/>
<path d="M1313.01 714.725C1313.01 714.725 1327.69 712.291 1328.58 733.567C1329.48 754.843 1338.69 794.365 1353.7 810.118L1294.65 812.359C1279.64 796.61 1272.27 758.886 1271.15 737.62C1270.12 718.064 1255.57 718.779 1255.57 718.779L1313.01 714.725Z" fill="#D3D3D3"/>
<path d="M1347.46 665.991C1347.79 666.217 1348.15 666.433 1348.54 666.619C1349.88 667.301 1351.57 667.79 1353.7 668.023C1354.48 668.113 1355.26 668.139 1356.04 668.119C1356.52 668.113 1357 668.079 1357.49 668.036C1371.41 666.679 1385.22 650.754 1385.22 650.754C1357.27 646.521 1345.29 651.728 1345.29 651.728C1345.29 651.728 1340.82 661.518 1347.46 665.991Z" fill="#FFBE55"/>
<path d="M1348.04 655.918C1348.04 655.918 1354.55 660.218 1379.23 649.344C1379.23 649.344 1376.77 634.686 1380.57 618.604C1384.24 603.127 1350.26 637.692 1350.26 637.692C1350.65 637.978 1350.73 639.557 1350.5 641.759C1350.44 642.357 1350.35 642.992 1350.25 643.654C1350.07 644.798 1349.83 646.019 1349.53 647.272C1349.46 647.611 1349.37 647.947 1349.28 648.287C1347.89 653.574 1348.04 651.306 1348.04 655.918Z" fill="#EEA886"/>
<path d="M1379.23 644.668C1379.23 644.668 1366.32 652.45 1353.55 654.202L1360.34 665.043L1381.86 650.222L1379.23 644.668Z" fill="#0B4870"/>
<path d="M1349.28 648.286C1349.28 648.286 1350.64 652.749 1353.55 654.202L1347.17 663.094L1347.4 651.306L1349.28 648.286Z" fill="#0B4870"/>
<path d="M1349.39 644.007C1364.03 644.778 1373.39 629.608 1373.67 629.159C1364.48 639.195 1350.25 639.79 1350.25 639.79C1350.07 640.934 1349.69 642.753 1349.39 644.007Z" fill="#A77860"/>
<path d="M1313.01 714.725C1313.01 714.725 1295.44 716.354 1299.16 740.873L1246.99 743.693C1246.99 743.693 1239.79 726.996 1255.57 718.779L1313.01 714.725Z" fill="#F7F7F7"/>
<path d="M1358.22 760.552C1358.22 760.552 1355.96 761.617 1354 761.085C1350.61 760.163 1347.71 755.448 1343.28 757.869C1338.85 760.293 1342.57 776.508 1344.82 778.886C1347.07 781.263 1353.97 779.873 1362.61 773.685C1371.23 767.503 1358.22 760.552 1358.22 760.552Z" fill="#EEA886"/>
<path d="M1344.89 757.274C1344.89 757.274 1337.4 757.832 1329.14 759.475C1321.9 760.918 1313.1 763.715 1313.44 765.547C1313.96 768.321 1320.91 765.198 1328.19 764.254C1334.9 763.382 1333.72 764.689 1333.72 764.689C1333.72 764.689 1334.03 764.3 1326.91 766.685C1319.25 769.248 1311.14 772.314 1311.39 773.821C1311.7 775.68 1311.89 775.886 1314.82 775.414C1313.2 776.049 1313.14 776.591 1313.34 777.309C1314.38 780.98 1326.21 778.992 1330.91 778.194C1327.3 778.829 1324.73 779.68 1326.82 781.526C1329.21 783.631 1345.81 780.053 1351.89 779.344C1358.5 778.576 1344.89 757.274 1344.89 757.274Z" fill="#EEA886"/>
<path d="M1403.25 659.011C1397.88 660.777 1395.01 668.362 1398.27 684.121C1401.89 701.546 1405.93 710.016 1408.27 714.12C1410.6 718.223 1423.19 739.237 1420.89 742.569C1418.59 745.894 1388.16 753.805 1386.09 754.397C1381.97 755.568 1354.37 761.075 1354.37 761.075L1361.12 784.708C1361.12 784.708 1445.16 770.369 1449.25 766.282C1453.34 762.192 1455.47 756.652 1450.95 742.362C1446.35 727.847 1438.09 693.851 1436.62 691.194C1435.16 688.537 1427.46 651.053 1403.25 659.011Z" fill="#FFBE55"/>
<path opacity="0.3" d="M1399.02 687.556C1399.02 687.556 1401.77 722.759 1413.96 747.763C1417.66 746.932 1421.31 745.016 1424.51 742.482C1424.51 742.482 1410.42 719.347 1409.16 716.717C1407.9 714.086 1400.45 693.682 1399.02 687.556Z" fill="#A77860"/>
<path opacity="0.3" d="M1358.63 779.727C1358.63 779.727 1392.46 785.799 1421.59 782.181C1421.16 779.368 1421.55 776.285 1422.45 772.68C1422.45 772.68 1395.14 778.038 1392.08 778.403C1389.01 778.766 1365.56 779.953 1358.63 779.727Z" fill="#A77860"/>
<path d="M381.196 573.285L380.83 576.61L376.876 613.955C367.563 607.134 359.913 613.057 354.126 622.664C353.959 622.93 353.79 623.196 353.627 623.495C348.538 614.284 342.455 597.627 353.793 583.128C359.384 575.979 367.629 572.886 376.044 572.886C376.543 572.886 377.075 572.886 377.574 572.919C377.807 572.919 378.006 572.953 378.239 572.953C378.602 572.986 379.001 573.019 379.37 573.049C379.669 573.089 379.969 573.119 380.268 573.152C380.438 573.185 380.604 573.185 380.767 573.219C380.897 573.252 381.063 573.252 381.196 573.285Z" fill="#E8734D"/>
<path d="M407.837 633.246C406.707 633.941 402.087 634.868 402.087 634.868C402.087 634.868 397.231 650.302 391.843 650.202C390.941 650.169 389.681 650.066 388.117 649.8C384.426 649.171 379.104 647.675 373.616 644.682L375.013 631.613L376.447 618.045C376.447 618.012 376.48 618.012 376.48 618.012L376.746 615.219L376.879 613.951C367.566 607.131 359.916 613.054 354.129 622.661C352.263 618.308 350.803 613.619 350.068 608.93C347.54 593.297 352.962 577.937 377.508 576.541C378.472 576.474 379.606 576.507 380.834 576.607C388.816 577.172 400.992 581.263 406.114 594.897C407.012 597.228 407.678 599.852 408.077 602.781C408.077 602.781 407.445 608.867 405.981 613.656C404.548 618.444 408.935 632.544 407.837 633.246Z" fill="#A77860"/>
<path d="M408.07 602.785C408.07 602.785 394.3 612.292 380.597 614.321C379.696 614.457 378.865 614.62 378.033 614.853H378C377.567 614.956 377.135 615.085 376.736 615.222L376.869 613.955C367.556 607.134 359.906 613.057 354.119 622.664C353.953 622.93 353.783 623.196 353.62 623.495C352.622 621.67 351.558 619.542 350.63 617.184C350.427 616.685 350.231 616.183 350.028 615.651C349.33 613.755 348.731 611.697 348.269 609.565C348.269 609.532 348.269 609.499 348.232 609.469C348.099 608.87 348.003 608.268 347.899 607.637C347.766 607.008 347.667 606.343 347.6 605.641C347.53 605.013 347.467 604.341 347.434 603.713C347.397 603.051 347.364 602.382 347.364 601.717C347.364 595.599 349.06 589.181 353.783 583.128C359.374 575.979 367.619 572.886 376.034 572.886C376.533 572.886 377.065 572.886 377.564 572.919C377.797 572.919 377.996 572.953 378.229 572.953C378.592 572.986 378.991 573.019 379.36 573.049C379.659 573.089 379.959 573.119 380.258 573.152C380.428 573.185 380.594 573.185 380.757 573.219C380.89 573.252 381.056 573.252 381.189 573.285C393.329 575.117 404.704 583.165 407.498 594.634C408.173 597.198 408.369 599.918 408.07 602.785Z" fill="#0E538C"/>
<path d="M342.318 653.231C342.016 654.791 341.62 656.454 341.121 658.186C341.387 657.056 341.786 655.353 342.318 653.231Z" fill="#E8734D"/>
<path d="M484.302 1111.54C484.302 1111.54 497.004 1129.37 495.265 1132.21C493.528 1135.03 480.165 1135.44 472.039 1132.21C463.91 1128.98 463.721 1108.07 460.042 1099.09C458.502 1095.33 461.788 1084.23 466.428 1083.42C471.065 1082.61 476.097 1084.98 476.097 1084.98C476.097 1084.98 471.287 1097.63 484.302 1111.54Z" fill="#FFBE55"/>
<path d="M476.187 1084.84C476.187 1084.84 478.854 1092.43 479.832 1099.69C480.64 1105.7 488.879 1118.47 488.493 1120.1C488.104 1121.71 477.653 1123.18 473.389 1119.01C469.139 1114.84 466.392 1102.73 465.457 1095.49C464.579 1088.74 463.481 1085.41 463.481 1085.41C463.481 1085.41 472.116 1080.4 476.187 1084.84Z" fill="#A77860"/>
<path d="M373.769 1111.84C373.769 1111.84 386.012 1129.37 384.266 1132.21C382.523 1135.03 369.173 1135.44 361.041 1132.21C352.915 1128.98 352.712 1108.07 349.04 1099.09C347.497 1095.33 350.796 1084.23 355.43 1083.42C360.063 1082.61 365.491 1085.15 365.491 1085.15C365.491 1085.15 360.751 1097.93 373.769 1111.84Z" fill="#FFBE55"/>
<path d="M365.491 1085.15C365.491 1085.15 366.459 1093.43 368.005 1099.29C369.558 1105.14 377.88 1118.47 377.494 1120.09C377.109 1121.71 366.648 1123.17 362.398 1119C358.137 1114.83 354.844 1102.78 354.462 1095.49C354.076 1088.18 355.43 1083.42 355.43 1083.42C355.43 1083.42 361.426 1080.71 365.491 1085.15Z" fill="#A77860"/>
<path d="M476.952 1088.56C476.952 1088.56 476.323 1089.09 475.255 1089.62C473.193 1090.68 469.435 1091.78 465.543 1088.96C465.208 1088.72 464.579 1087.7 463.648 1086.03C463.648 1086.03 463.648 1086.03 463.648 1085.99V1085.96C463.548 1085.83 463.481 1085.69 463.382 1085.53C455.366 1070.8 429.889 1013 429.889 995.713C429.889 975.986 419.711 951.917 413.259 937.947C410.834 932.726 408.902 928.938 408.237 927.276C407.538 925.58 406.873 923.917 406.241 922.287C385.487 869.979 389.677 853.681 386.751 850.123C383.76 846.465 383.494 852.384 381.728 860.501C380.564 865.981 378.436 900.107 376.473 924.146C376.174 928.173 375.841 931.928 375.542 935.187C374.977 941.176 374.444 945.599 373.979 947.424C371.717 956.343 373.48 986.335 372.249 1001.5C370.982 1016.63 365.497 1085.16 365.497 1085.16C365.497 1085.16 361.24 1092.11 355.253 1085.33C355.22 1085.27 355.154 1085.13 355.087 1084.86C354.987 1084.56 354.921 1084.14 354.788 1083.57C352.593 1072.03 344.943 1007.55 344.71 990.99C344.444 972.967 344.178 948.123 343.712 940.344C343.446 936.188 343.18 932.234 342.881 928.439C342.711 926.414 342.545 924.412 342.382 922.484C337.326 863.561 329.211 850.495 345.608 802.17C345.678 801.967 345.741 801.741 345.841 801.542C348.768 792.962 351.828 785.842 354.954 779.96C355.021 779.83 355.087 779.694 355.154 779.564C355.187 779.524 355.154 779.524 355.154 779.524C361.706 767.32 368.557 760.669 375.276 757.842C377.305 757.011 379.337 756.512 381.329 756.283C382.56 756.18 383.79 756.146 385.021 756.243C385.154 756.243 385.32 756.243 385.453 756.283C388.114 756.509 390.709 757.244 393.203 758.341C393.203 758.341 393.236 758.341 393.236 758.374C394.267 758.777 395.265 759.309 396.263 759.834L396.329 759.874C400.055 761.966 403.613 764.792 406.84 767.922C407.205 768.254 407.505 768.55 407.837 768.916L407.874 768.949C409.304 770.346 410.635 771.812 411.932 773.276C413.162 774.705 414.356 776.165 415.457 777.602C416.458 778.862 417.323 780.026 418.218 781.227V781.26C421.943 786.481 424.604 791.066 425.904 793.294C426.001 793.464 426.104 793.627 426.17 793.793C426.37 794.229 426.533 794.488 426.603 794.658C426.636 794.691 426.669 794.724 426.669 794.754C426.669 794.794 426.702 794.824 426.702 794.857C426.772 795.253 427.138 797.052 427.704 799.779C430.497 813.277 438.044 850.153 440.076 860.96C441.44 868.176 444.101 890.397 446.396 910.978C447.457 920.552 448.421 929.736 449.153 936.952C449.755 942.902 450.187 947.494 450.35 949.755C451.082 960.726 461.692 1002.03 461.193 1005.95C460.761 1009.38 472.967 1069.2 476.197 1084.83C476.197 1084.86 476.197 1084.9 476.23 1084.93C476.263 1085.03 476.263 1085.1 476.296 1085.16C476.719 1087.33 476.952 1088.56 476.952 1088.56Z" fill="#A77860"/>
<path d="M448.883 909.651C448.085 910.12 447.254 910.549 446.389 910.981C434.781 917.033 420.543 920.458 406.244 922.287C396.063 923.611 385.819 924.113 376.476 924.146C362.008 924.216 349.569 923.218 342.385 922.484C338.194 922.055 335.803 921.722 335.803 921.722C327.654 862.826 336.032 822.987 343.852 800.91C348.804 786.843 353.494 779.956 353.494 779.956C353.494 779.956 354.026 779.956 354.957 779.956H355.157C359.085 779.956 369.392 780.093 381.033 780.957C391.576 781.755 403.217 783.185 412.164 785.743C414.456 786.404 416.585 787.139 418.451 787.937C421.876 789.43 424.471 791.196 425.901 793.288C425.997 793.457 426.1 793.62 426.167 793.787C426.366 794.086 426.499 794.352 426.599 794.651C426.632 794.685 426.666 794.718 426.666 794.748C426.666 794.788 426.699 794.818 426.699 794.851C427.135 795.981 427.6 797.578 428.162 799.506C434.914 824.457 448.883 909.651 448.883 909.651Z" fill="#0E538C"/>
<path d="M459.696 1097.52V1116.19H462.025V1101.76L459.696 1097.52Z" fill="#FFBE55"/>
<path d="M348.698 1097.52V1116.19H351.023V1101.76L348.698 1097.52Z" fill="#FFBE55"/>
<path d="M376.876 613.955L376.743 615.222L376.477 618.015C376.477 618.015 376.443 618.015 376.443 618.048L375.01 631.616L373.613 644.685L372.252 657.754C372.252 657.754 371.251 658.552 369.625 659.779C369.588 659.812 369.588 659.849 369.555 659.849C369.322 660.045 369.06 660.245 368.793 660.448C368.428 660.714 368.058 661.013 367.659 661.312C366.432 662.24 364.999 663.274 363.435 664.435C363.402 664.468 363.402 664.468 363.365 664.468C363.299 664.501 363.199 664.571 363.103 664.638C360.039 666.832 356.517 669.263 353.055 671.355C345.405 676.044 338.088 679.239 336.724 675.445C336.628 675.212 336.591 674.976 336.558 674.743V674.71C336.358 673.314 336.724 671.288 337.789 668.495C339.052 665.136 340.05 662.143 340.848 659.35C340.848 659.284 340.882 659.181 340.882 659.117C340.981 658.785 341.048 658.489 341.115 658.19C341.613 656.457 342.013 654.794 342.312 653.235C344.737 640.997 343.143 631.749 344.274 610.965C344.407 608.342 344.607 605.548 344.84 602.522C346.998 575.653 366.592 572.69 376.037 572.893C367.623 572.893 359.374 575.985 353.787 583.135C346.968 591.844 346.436 601.391 348.269 609.569C349.433 614.992 351.595 619.844 353.62 623.499C353.787 623.2 353.956 622.933 354.119 622.667C359.913 613.057 367.563 607.134 376.876 613.955Z" fill="#0E538C"/>
<path d="M394.367 668.857C394.367 668.857 393.669 669.027 392.538 669.293C390.176 669.825 385.786 670.723 381.329 671.351C380.664 671.448 379.999 671.554 379.333 671.618C379.2 671.651 379.034 671.651 378.901 671.684C377.468 671.854 376.041 671.983 374.707 672.023C372.878 672.12 371.181 672.09 369.851 671.887C367.09 671.451 365.66 670.321 366.924 667.963C367.19 667.494 367.393 666.962 367.589 666.397C367.955 665.469 368.221 664.371 368.421 663.174V663.134C368.421 663.101 368.421 663.101 368.421 663.068C368.587 662.237 368.687 661.339 368.787 660.444C369.053 660.241 369.316 660.042 369.548 659.846C369.582 659.846 369.582 659.806 369.618 659.776C371.245 658.549 372.246 657.751 372.246 657.751L373.606 644.682L375.003 631.613C381.655 630.549 389.741 630.412 387.708 636.335C386.577 639.727 387.01 644.648 388.074 649.637C388.074 649.703 388.107 649.733 388.107 649.8C388.407 651.163 388.739 652.526 389.105 653.89C389.471 655.286 389.903 656.617 390.303 657.917L391.666 662.004L391.7 662.14C393.173 666.127 394.367 668.857 394.367 668.857Z" fill="#A77860"/>
<path d="M321.029 752.901C321.428 756.15 336.608 755.471 352.805 753.815C352.822 753.882 352.839 753.938 352.859 754.005C353.204 755.435 353.507 756.705 353.727 757.603C353.963 758.584 354.186 759.621 354.375 760.709C356.002 769.977 355.872 783.026 352.779 794.209C352.779 794.209 393.609 809.426 419.073 795.559C419.073 795.559 416.368 773.419 420.43 759.109C424.501 744.793 445.74 694.932 445.74 694.932C445.74 694.932 430.341 672.675 418.59 668.601C406.839 664.528 391.69 662.01 391.69 662.01L369.668 662.822C369.668 662.822 351.335 667.597 347.228 668.887C339.894 671.205 337.057 673.643 333.258 681.215C328.037 691.627 319.236 738.269 321.029 752.901ZM344.184 728.376C344.184 728.376 346.19 732.812 347.989 737.833C346.522 737.97 345.132 737.976 344.474 738.073C338.673 738.944 343.034 731.572 344.184 728.376Z" fill="#FFBE55"/>
<path d="M389.112 653.893C375.579 651.998 373.679 644.885 373.613 644.682C388.084 649.637 388.084 649.637 388.084 649.637C388.084 649.703 388.118 649.733 388.118 649.8C388.414 651.163 388.75 652.53 389.112 653.893Z" fill="#A77860"/>
<path d="M344.474 728.552C344.474 728.552 345.468 730.644 348.189 738.867C350.949 715.759 349.506 703.724 349.506 703.724C349.203 716.075 344.474 728.552 344.474 728.552Z" fill="#CFBEB8"/>
<path d="M352.855 754.005C353.201 755.435 353.504 756.705 353.723 757.603C353.959 758.584 354.182 759.621 354.372 760.709C363.492 755.754 370.047 751.877 370.047 751.877C367.593 752.422 352.855 754.005 352.855 754.005Z" fill="#CFBEB8"/>
<path d="M368.424 663.141L394.357 684.274L391.683 662.01C391.686 662.01 376.566 658.752 368.424 663.141Z" fill="#A77860"/>
<path d="M386.864 680.689L394.357 684.274L368.893 659.038L386.864 680.689Z" fill="#FCD2B1"/>
<path d="M389.112 724.791C388.946 728.585 388.58 732.902 388.051 737.527C387.615 741.322 387.086 745.342 386.484 749.466C386.418 749.828 386.388 750.2 386.318 750.563C386.019 752.458 385.753 754.357 385.453 756.286C385.42 756.319 385.42 756.352 385.42 756.382C385.32 756.914 385.217 757.48 385.154 758.045C385.054 758.544 384.984 759.079 384.888 759.611C384.818 760.074 384.722 760.572 384.655 761.041C383.491 767.888 382.23 774.675 381.03 780.961C379.566 788.373 378.203 795.094 377.072 800.211C376.842 801.375 376.606 802.439 376.41 803.44C375.578 807.298 371.62 809.592 367.862 808.428L345.844 801.545L343.848 800.916L341.686 800.248C341.686 800.248 353.826 769.657 351.664 754.128C351.698 754.061 351.664 753.991 351.664 753.958C351.565 753.33 351.465 752.764 351.332 752.199C350.101 747.144 348.738 742.386 347.507 738.269C347.474 738.133 347.407 738.003 347.374 737.866C347.374 737.8 347.341 737.737 347.307 737.664C346.872 736.267 346.439 735.007 346.077 733.773L345.475 731.947C345.112 730.913 344.776 729.985 344.51 729.154C344.477 729.018 344.444 728.921 344.377 728.815C344.377 728.815 344.344 728.781 344.377 728.781C343.512 726.254 342.947 724.794 342.947 724.794C342.947 724.794 336.395 688.684 353.058 671.355C355.755 668.562 359.081 666.237 363.106 664.638C363.405 664.541 363.705 664.405 364.004 664.305C364.104 664.272 364.137 664.272 364.137 664.272C364.869 664.006 365.634 663.773 366.432 663.57C367.094 663.367 367.729 663.208 368.428 663.071C368.494 663.071 368.561 663.038 368.627 663.038C368.963 662.972 369.259 662.908 369.592 662.875C369.628 662.835 369.628 662.835 369.661 662.835C369.661 662.835 370.227 663.736 371.158 665.369C372.023 666.929 373.287 669.187 374.714 672.02C376.609 675.808 378.871 680.56 381.003 685.92C385.59 697.423 389.714 711.659 389.112 724.791Z" fill="#0B4870"/>
<path d="M450.181 699.149L436.378 717.372L433.218 721.529L426.204 730.81C426.204 734.298 426.27 738.156 426.403 742.246V742.279C426.44 743.473 426.503 744.644 426.536 745.838C426.702 750.028 426.935 754.354 427.168 758.67C427.334 761.334 427.501 763.991 427.664 766.588C427.7 766.854 427.7 767.12 427.734 767.386V767.749C427.966 771.074 428.199 774.27 428.432 777.289C428.432 777.522 428.432 777.758 428.465 777.991C429.33 789.726 430.128 798.379 430.128 798.379L428.166 799.51L427.7 799.776L419.152 804.694C416.192 806.39 412.5 804.298 412.431 800.906C412.431 800.142 412.397 799.31 412.397 798.446C412.331 794.887 412.264 790.528 412.168 785.742C412.098 783.152 412.068 780.392 411.998 777.559C411.998 776.162 411.965 774.732 411.932 773.272C411.898 772.304 411.898 771.31 411.862 770.309V770.213L411.765 764.822C411.729 764.031 411.729 763.229 411.696 762.465C411.662 759.904 411.629 757.38 411.563 754.846C411.529 752.392 411.466 749.961 411.429 747.597C411.363 744.474 411.296 741.445 411.263 738.588C411.163 734.062 411.064 729.942 410.997 726.48C410.731 713.082 405.31 695.092 400.524 681.654C396.596 670.75 393.136 662.832 393.136 662.832C393.27 662.872 393.369 662.902 393.502 662.968C393.768 663.035 394.035 663.131 394.301 663.234L394.001 662.436L393.832 662C393.832 662 394.364 662.07 395.295 662.233C399.918 663.031 414.287 665.662 422.269 669.649C424.497 670.746 427.188 672.941 430.015 675.671C434.475 679.895 439.232 685.415 443.056 690.037C447.184 695.128 450.181 699.149 450.181 699.149Z" fill="#0B4870"/>
<path d="M428.455 777.289C428.455 777.289 410.375 777.991 407.561 777.289C404.754 776.588 385.992 768.45 384.861 760.416C383.737 752.382 428.455 767.612 428.455 767.612V777.289Z" fill="#A77860"/>
<path d="M372.356 752.179L445.737 743.593L412.59 770.562L372.356 752.179Z" fill="#D3D3D3"/>
<path d="M412.59 770.562L372.356 756.851V752.179L413.944 765.521L412.59 770.562Z" fill="#F2F2F2"/>
<path d="M393.672 738.711C393.672 738.711 399.739 738.711 403.141 738.023C405.772 737.484 412.308 738.226 413.981 739.699C415.64 741.172 420.942 751.454 421.946 752.086C422.944 752.711 421.434 754.171 419.671 753.436C419.671 753.436 418.058 757.932 414.067 756.256C410.079 754.567 407.368 750.886 405.283 750.24C403.198 749.592 391.041 746.323 391.041 746.323C391.041 746.323 390.539 737.614 393.672 738.711Z" fill="#A77860"/>
<path d="M410.997 684.287L404.282 680.028L393.506 662.972L393.04 662.24L390.313 657.92L395.302 662.24L395.631 662.739L410.997 684.287Z" fill="#FFBE55"/>
<path d="M404.269 680.021L394.357 684.274L391.686 662.01L390.299 657.907L404.269 680.021Z" fill="#FCD2B1"/>
<path d="M479.779 753.389C479.779 753.389 479.815 755.385 479.283 758.215C478.818 760.872 477.786 764.3 475.724 767.393C472.066 772.873 437.642 777 428.462 777.998C427.032 778.167 426.234 778.23 426.234 778.23C426.333 778.027 426.367 777.732 426.436 777.366C426.736 775.104 426.47 770.183 426.303 768.018C426.267 767.356 426.234 766.954 426.234 766.954L426.367 766.921L427.664 766.588L479.779 753.389Z" fill="#0B4870"/>
<path d="M515.334 682.425L496.376 744.71L493.05 755.648L479.283 758.215L428.459 767.626L427.73 767.755L426.3 768.021L418.614 769.418L412.597 770.549L413.961 765.527L414.559 763.266L416.355 756.552L418.85 747.271L419.013 746.705L430.191 705.138L433.98 691.005L442.195 690.14L443.063 690.044L515.334 682.425Z" fill="#F2F2F2"/>
<path d="M368.893 659.038L386.864 680.689L377.025 689.452L366.419 663.537L368.893 659.038Z" fill="#FFBE55"/>
<path d="M393.835 737.86L393.669 738.725L392.172 746.609L391.773 748.634C391.773 748.634 389.747 748.967 386.484 749.466C382.46 750.094 376.506 750.959 370.057 751.863C370.021 751.863 370.021 751.863 369.987 751.896C369.688 751.93 369.359 751.963 369.06 752.026C365.298 752.525 361.406 753.027 357.648 753.493C356.817 753.559 356.018 753.656 355.223 753.752C354.887 753.792 354.558 753.822 354.259 753.855C353.79 753.888 353.328 753.952 352.862 754.018C352.463 754.058 352.064 754.088 351.665 754.121C349.104 754.387 346.676 754.62 344.48 754.75C344.48 754.75 336.298 755.717 329.547 755.717C325.19 755.717 321.435 755.315 320.799 754.015C319.136 750.729 321.331 729.606 324.924 710.588C328.516 691.563 332.207 680.626 336.565 674.737V674.704C337.629 673.274 339.791 671.943 342.485 670.716C342.847 670.547 343.183 670.417 343.546 670.247C344.311 669.915 345.112 669.586 345.907 669.32C352.762 666.723 361.007 664.897 363.439 664.428C363.705 664.361 363.904 664.298 364.004 664.298C364.104 664.265 364.137 664.265 364.137 664.265L349.869 710.917V710.951L346.942 720.458L346.872 720.757L344.58 728.206L344.48 728.545C344.48 728.545 344.447 728.642 344.381 728.772C344.347 728.772 344.381 728.805 344.381 728.805C343.815 729.975 341.687 734.624 341.79 736.756C341.856 737.521 342.388 737.853 343.087 737.99C343.586 737.95 344.65 737.853 346.147 737.757L347.211 737.654H347.311C347.477 737.62 347.61 737.62 347.776 737.62C347.843 737.62 347.876 737.62 347.943 737.587H348.342C353.231 737.225 360.482 736.789 366.469 736.756C370.659 736.756 376.081 736.925 381.003 737.158C383.594 737.255 386.025 737.384 388.054 737.521C391.51 737.697 393.835 737.86 393.835 737.86Z" fill="#0B4870"/>
<path d="M1334.42 587.561C1334.42 587.561 1327.38 600.61 1330.87 602.635C1333.75 604.318 1327.49 617.131 1326.68 619.222C1325.85 621.307 1331.9 622.834 1333.18 624.177C1334.46 625.527 1338.27 642.098 1343.25 642.597C1348.22 643.095 1370.64 635.297 1376.75 628.949C1382.86 622.601 1387.87 593.936 1383.79 581.835C1379.72 569.743 1346.85 564.755 1334.42 587.561Z" fill="#EEA987"/>
<path d="M1333.02 590.384C1333.02 590.384 1318.71 575.905 1331.05 569.009C1366.25 549.315 1376.01 573.731 1378.73 574.426C1381.44 575.127 1396.83 576.185 1389.06 603.21C1382.39 626.422 1376.75 628.949 1376.75 628.949C1376.75 628.949 1376.47 613.952 1373.65 611.893C1369.24 608.697 1359.58 609.469 1359.58 609.469C1359.58 609.469 1364.18 597.245 1356.98 595.505C1349.79 593.783 1340.3 587.684 1333.02 590.384Z" fill="#0B4870"/>
<path d="M1365.84 606.11C1366.48 604.428 1368.54 597.231 1374.71 601.461C1380.9 605.695 1370.87 619.275 1369.79 619.452C1368.71 619.628 1360.5 620.23 1365.84 606.11Z" fill="#EEA987"/>
<path d="M1080.29 667.823C1074.17 674.175 1051.75 681.996 1046.77 681.494C1041.81 680.995 1037.98 664.398 1036.69 663.068C1035.42 661.704 1029.37 660.178 1030.2 658.113C1031 656.021 1037.29 643.182 1034.39 641.519C1031.93 640.089 1034.7 633.206 1036.55 629.252C1037.32 627.556 1037.95 626.425 1037.95 626.425C1050.39 603.646 1083.25 608.634 1087.31 620.702C1091.4 632.81 1086.38 661.472 1080.29 667.823Z" fill="#EEA987"/>
<path d="M1092.59 642.091C1085.91 665.299 1080.29 667.823 1080.29 667.823C1080.29 667.823 1080.06 655.885 1078 651.865C1077.73 651.366 1077.46 651 1077.16 650.767C1074.9 649.138 1071.28 648.539 1068.25 648.37C1065.39 648.167 1063.1 648.336 1063.1 648.336C1063.1 648.336 1067.72 636.132 1060.5 634.406C1053.32 632.677 1043.84 626.555 1036.55 629.248C1036.55 629.248 1022.22 614.783 1034.56 607.899C1069.78 588.213 1079.53 612.621 1082.25 613.323C1084.98 614.021 1100.34 615.052 1092.59 642.091Z" fill="#0B4870"/>
<path d="M1069.36 644.994C1070 643.312 1072.06 636.109 1078.24 640.345C1084.42 644.579 1074.39 658.16 1073.31 658.336C1072.23 658.512 1064.02 659.107 1069.36 644.994Z" fill="#EEA987"/>
</svg>
