<svg width="2318" height="1952" viewBox="0 0 2318 1952" fill="none" xmlns="http://www.w3.org/2000/svg">
<g opacity="0.3">
<path opacity="0.3" d="M1808.44 1590.45C1601.47 1563.34 1461.51 1676.39 1315.54 1735.56C1143.7 1805.2 1000.81 1688.55 867.587 1622.66C628.131 1504.24 455.956 1740.98 190.954 1615.26C-62.6799 1494.94 -57.3098 1129.56 169.423 993.655C396.143 857.755 409.537 798.67 415.724 651.971C421.911 505.286 437.705 232.081 710.014 296.202C944.068 351.323 1094.31 337.566 1226.93 271.545C1359.53 205.518 1817.85 54.234 1854.49 524.255C1872 748.85 1898.81 834.651 2067.03 945.931C2235.25 1057.22 2318.71 1239.12 2272.72 1399.04C2229.15 1550.47 2084.87 1626.66 1808.44 1590.45Z" fill="#48B0FF"/>
</g>
<path d="M575.208 1137.24C575.208 1137.24 580.066 1142.12 581.662 1146.61C582.928 1150.15 587.355 1154.92 589.432 1157.63C591.515 1160.34 599.21 1172.97 600.261 1176.45C600.698 1177.89 599.824 1187.62 601.021 1190.43C602.218 1193.23 605.346 1198.63 602.845 1199.55C600.343 1200.48 596.189 1196.4 596.189 1196.4C596.189 1196.4 597.12 1199.02 595.188 1200.49C591.414 1203.38 588.716 1202.11 588.716 1202.11C588.716 1202.11 587.887 1205.39 586.012 1206.2C581.871 1207.99 579.28 1206.69 579.28 1206.69C579.28 1206.69 577.786 1208.73 574.753 1209.31C570.883 1210.05 568.401 1207.06 568.401 1207.06C568.401 1207.06 563.765 1209.08 561.758 1207.09C559.763 1205.11 559.377 1202.62 558.262 1200.68C557.141 1198.72 552.797 1179.95 555.672 1165.14C558.56 1150.35 547.249 1138.9 547.249 1138.9L575.208 1137.24Z" fill="#EEA886"/>
<path d="M609.665 1245.5L545.489 1243.8C538.972 1243.64 533.805 1238.19 533.982 1231.68L535.039 1191.2C535.21 1184.68 540.657 1179.52 547.179 1179.7L611.343 1181.38C617.853 1181.54 623.021 1186.99 622.85 1193.52L621.786 1233.98C621.615 1240.49 616.175 1245.66 609.665 1245.5ZM546.958 1187.63C544.811 1187.56 543.025 1189.27 542.968 1191.43L541.904 1231.89C541.854 1234.03 543.551 1235.83 545.698 1235.88L609.868 1237.57C612.014 1237.62 613.8 1235.91 613.864 1233.77L614.921 1193.31C614.972 1191.15 613.268 1189.36 611.128 1189.31L546.958 1187.63Z" fill="#0B4870"/>
<path d="M663.953 1229.58L492.253 1225.08L487.732 1397.6L659.432 1402.1L663.953 1229.58Z" fill="#0B4870"/>
<path d="M663.956 1229.58L492.243 1225.08L489.622 1325.09L661.335 1329.59L663.956 1229.58Z" fill="#0B4870"/>
<path d="M596.423 1194.49C596.423 1194.49 592.56 1177.63 587.241 1174.98C581.921 1172.34 582.972 1178.51 582.972 1178.51C582.972 1178.51 582.041 1172.4 577.02 1172.61C571.991 1172.81 573.619 1179.97 573.619 1179.97C573.619 1179.97 571.643 1175.52 566.843 1177.53C562.017 1179.54 564.74 1185.18 564.74 1185.18C564.74 1185.18 558.433 1180.43 556.717 1186.63C553.829 1197.11 561.757 1207.08 561.757 1207.08C561.757 1207.08 563.904 1209.31 568.401 1207.06C568.401 1207.06 573.283 1212.88 579.28 1206.68C579.28 1206.68 587.697 1209.19 588.716 1202.11C588.71 1202.11 597.823 1204.26 596.423 1194.49Z" fill="#DB9C7C"/>
<path d="M534.85 1179.7L515.135 1298.54L505.56 1285.74C505.56 1285.73 533.564 1184.56 534.85 1179.7Z" fill="#122333"/>
<path d="M455.715 1630.36C450.345 1622.71 455.177 1594.07 468.185 1582.1C481.192 1570.11 493.123 1581.5 493.123 1581.5C493.123 1581.5 500.684 1599.8 506.643 1604.85C512.59 1609.9 539.004 1644.26 548.123 1645.99C557.242 1647.72 575.418 1648.91 576.158 1652.78C576.893 1656.65 577.343 1675.44 551.429 1676.05C525.522 1676.67 518.701 1676.19 512.4 1669.85C506.086 1663.52 481.357 1645.31 474.549 1645.47L455.715 1630.36Z" fill="#DB9C7C"/>
<path opacity="0.9" d="M548.123 1645.99C548.123 1645.99 519.372 1649.91 507.156 1640.49C494.947 1631.05 479.621 1607.6 455.24 1607.12C455.24 1607.12 446.501 1618.31 460.807 1643.87C460.807 1643.87 468.729 1673.16 468.52 1678.02L475.321 1677.86L474.549 1645.48C474.549 1645.48 498.962 1656.24 515.845 1674.96C515.845 1674.96 565.519 1682.86 574.879 1667.4C574.879 1667.4 580.04 1659.67 577.76 1652.11C575.474 1644.54 548.123 1645.99 548.123 1645.99Z" fill="#FFBE55"/>
<path d="M438.547 1108.15C438.547 1108.15 408.156 1145.05 446.248 1210.88C446.248 1210.88 449.503 1244.53 450.155 1257.16C450.807 1269.79 458.951 1317.02 454.569 1339.96C450.2 1362.89 435.913 1397.31 441.251 1430.2C446.59 1463.09 470.971 1558.06 466.278 1582.4L493.313 1581.75C493.313 1581.75 502.945 1380.61 505.941 1373.51C508.936 1366.41 520.854 1351.02 519.417 1319.8C517.973 1288.57 549.991 1160.62 549.858 1125.16C549.719 1089.68 438.547 1108.15 438.547 1108.15Z" fill="#DB9C7C"/>
<path d="M437.414 1630.08C432.24 1622.29 437.743 1593.79 451.023 1582.12C464.303 1570.45 475.961 1582.12 475.961 1582.12C475.961 1582.12 483.098 1600.59 488.924 1605.77C494.757 1610.96 520.354 1645.95 529.423 1647.89C538.504 1649.83 556.641 1651.46 557.287 1655.35C557.933 1659.24 557.939 1678.02 532.019 1678.02C506.099 1678.02 499.291 1677.38 493.136 1670.9C486.98 1664.42 462.681 1645.63 455.874 1645.63L437.414 1630.08Z" fill="#EEA886"/>
<path opacity="0.9" d="M529.423 1647.89C529.423 1647.89 500.59 1651.13 488.608 1641.41C476.626 1631.69 461.852 1607.88 437.49 1606.82C437.49 1606.82 428.491 1617.8 442.182 1643.71C442.182 1643.71 449.415 1673.16 449.079 1678.02H455.88V1645.63C455.88 1645.63 480.033 1656.96 496.473 1676.08C496.473 1676.08 545.945 1685.15 555.672 1669.93C555.672 1669.93 561.017 1662.32 558.915 1654.7C556.799 1647.08 529.423 1647.89 529.423 1647.89Z" fill="#FFBE55"/>
<path d="M432.613 1107.59C432.613 1107.59 401.361 1143.76 437.882 1210.49C437.882 1210.49 440.339 1244.19 440.688 1256.83C441.036 1269.48 448.059 1316.89 443.151 1339.72C438.237 1362.54 423.133 1396.6 427.705 1429.61C432.271 1462.62 454.392 1560.4 449.123 1584.63L476.164 1582.37C476.164 1582.37 490.558 1381.5 493.712 1374.48C496.872 1367.47 509.164 1352.36 508.461 1321.1C507.764 1289.84 551.644 1170.1 552.354 1134.63C553.063 1099.17 432.613 1107.59 432.613 1107.59Z" fill="#EEA886"/>
<path d="M552.347 1144.12C552.347 1144.12 517.561 1344.29 525.281 1373.08C525.281 1373.08 466.531 1367.7 420.163 1349.68C420.163 1349.68 443.309 1271.32 435.488 1229.8C427.673 1188.27 410.024 1165.54 421.657 1123.58C433.284 1081.62 552.347 1144.12 552.347 1144.12Z" fill="#0E538C"/>
<path d="M1380.95 689.726C1380.95 689.726 1413.35 669.491 1429.91 695.75C1442.1 715.086 1445.78 790.145 1445.78 790.145L1449.46 862.747C1449.46 862.747 1444.33 874.673 1415.21 873.881C1386.09 873.09 1380.95 689.726 1380.95 689.726Z" fill="#0E538C"/>
<path opacity="0.9" d="M1409.34 1575.62C1409.34 1575.62 1390.93 1602.97 1383.51 1609.56C1383.51 1609.56 1355.02 1627.04 1353.96 1638.66C1353.27 1646.24 1365.35 1646.94 1384.85 1647.5C1404.37 1648.04 1416.89 1641.24 1420.45 1629.41C1424.02 1617.6 1430.78 1612.32 1430.78 1612.32V1637.04H1435.16C1435.16 1637.04 1436.26 1613.14 1436.54 1608.74C1436.82 1604.35 1439.7 1587.44 1430.42 1579.95C1421.14 1572.46 1409.34 1575.62 1409.34 1575.62Z" fill="#FFBE55"/>
<path d="M1380.34 1610.96C1380.34 1610.96 1396.37 1619.2 1410.94 1608.32C1425.5 1597.43 1430.42 1579.95 1430.42 1579.95L1409.34 1575.62L1380.34 1610.96Z" fill="#DBA585"/>
<path opacity="0.9" d="M1284.46 1553.78C1284.46 1553.78 1281.26 1561.31 1275.24 1569.18C1270.83 1574.92 1257.12 1598.57 1251.06 1600.21C1245.01 1601.87 1224.69 1615.62 1223.04 1626.06C1221.39 1636.49 1222.22 1633.48 1240.63 1634.3C1259.03 1635.13 1271.12 1636.21 1279.91 1623.31C1288.71 1610.4 1302.73 1601.06 1302.73 1601.06V1634.74H1309.87C1309.87 1634.74 1313.17 1599.67 1315.09 1597.19C1317.01 1594.72 1321.95 1567.79 1304.92 1553.78C1287.88 1539.76 1284.46 1553.78 1284.46 1553.78Z" fill="#FFBE55"/>
<path d="M1251.06 1600.21C1251.06 1600.21 1267.55 1604.34 1273.88 1600.21C1280.19 1596.1 1301.68 1559.77 1308.8 1557.6C1308.8 1557.6 1301.9 1543.6 1284.46 1553.77C1284.45 1553.78 1255.74 1594.17 1251.06 1600.21Z" fill="#DBA585"/>
<path d="M1233.44 1153.61C1233.44 1153.61 1229.17 1157.69 1227.71 1161.49C1226.54 1164.5 1222.65 1168.49 1220.8 1170.75C1218.96 1173.04 1212.08 1183.68 1211.1 1186.64C1210.7 1187.85 1211.23 1196.23 1210.15 1198.59C1209.06 1200.98 1206.26 1205.53 1208.38 1206.38C1210.5 1207.23 1214.14 1203.82 1214.14 1203.82C1214.14 1203.82 1213.29 1206.05 1214.91 1207.36C1218.07 1209.92 1220.43 1208.89 1220.43 1208.89C1220.43 1208.89 1221.06 1211.71 1222.65 1212.45C1226.16 1214.08 1228.4 1213.03 1228.4 1213.03C1228.4 1213.03 1229.64 1214.82 1232.23 1215.38C1235.53 1216.1 1237.72 1213.59 1237.72 1213.59C1237.72 1213.59 1241.64 1215.42 1243.4 1213.76C1245.16 1212.1 1245.54 1210 1246.55 1208.34C1247.54 1206.71 1251.69 1190.7 1249.56 1177.96C1247.42 1165.22 1257.37 1155.67 1257.37 1155.67L1233.44 1153.61Z" fill="#DBA585"/>
<path d="M1188.14 1241.45V1206.76C1188.14 1201.17 1192.68 1196.63 1198.27 1196.63H1253.28C1258.87 1196.63 1263.42 1201.17 1263.42 1206.76V1241.45C1263.42 1247.04 1258.87 1251.58 1253.28 1251.58H1198.27C1192.68 1251.58 1188.14 1247.04 1188.14 1241.45ZM1198.27 1203.42C1196.43 1203.42 1194.94 1204.92 1194.94 1206.76V1241.45C1194.94 1243.29 1196.43 1244.79 1198.27 1244.79H1253.28C1255.12 1244.79 1256.62 1243.29 1256.62 1241.45V1206.76C1256.62 1204.92 1255.12 1203.42 1253.28 1203.42H1198.27Z" fill="#0B4870"/>
<path d="M1328.97 1236.69H1122.58V1384.59H1328.97V1236.69Z" fill="#0E538C"/>
<path d="M1313.44 840.952C1313.44 840.952 1324.02 841.11 1328.52 872.721C1333.03 904.338 1324.48 917.55 1323.47 930.698C1322.46 943.86 1307.02 1028.83 1306.61 1032.59C1306.19 1036.34 1304.11 1081.56 1298.1 1093.57C1292.08 1105.57 1247.84 1173.58 1247.26 1176.97C1246.66 1180.37 1225.77 1165.13 1225.77 1165.13C1225.77 1165.13 1260.53 1092.37 1262.54 1084.08C1264.56 1075.78 1278.55 1033.38 1276.34 1020.45C1274.12 1007.52 1282.54 936.139 1281.72 928.203C1280.9 920.267 1293.19 845.784 1313.44 840.952Z" fill="#DBA585"/>
<path d="M1313.44 840.952C1313.44 840.952 1324.02 841.11 1328.52 872.721C1333.03 904.338 1328.96 915.719 1326.23 929.425C1323.66 942.365 1314.89 1021.53 1314.47 1025.28C1314.05 1029.06 1303.55 1076.77 1298.1 1093.57C1293.95 1106.33 1254.51 1173.17 1253.91 1176.57C1253.32 1179.96 1223.26 1160.94 1223.26 1160.94C1223.26 1160.94 1261.82 1085.69 1263.82 1077.4C1265.84 1069.09 1272.38 1040.37 1272.59 1027.23C1272.83 1011.82 1282.53 936.139 1281.71 928.197C1280.9 920.254 1283.94 851.763 1313.44 840.952Z" fill="#0E538C"/>
<path d="M1414.26 1050.52C1414.26 1050.52 1437.5 1080.75 1443.81 1116.62C1450.1 1152.48 1440.08 1272.83 1440.36 1290.57C1440.63 1308.29 1457.12 1352.39 1453.81 1385.78C1450.51 1419.18 1440.26 1582.61 1440.26 1582.61L1401.88 1578.28C1401.88 1578.28 1403.94 1408.87 1401.88 1394.84C1399.82 1380.84 1395.68 1329.74 1394.86 1323.98C1394.04 1318.21 1342.53 1166.66 1342.53 1140.81C1342.53 1114.96 1358.2 1008.33 1414.26 1050.52Z" fill="#0B4870"/>
<path d="M1297.47 1062.34C1297.47 1062.34 1259.28 1208.12 1254.75 1228.31C1250.21 1248.51 1243.63 1265.18 1243.63 1273.75C1243.63 1293.65 1251.03 1325.6 1251.03 1325.6L1277 1556.44H1309.81C1309.81 1556.44 1310.39 1421.64 1312.45 1394.45C1314.5 1367.24 1297.61 1325.19 1301.74 1313.65C1305.85 1302.11 1368.1 1168.96 1368.1 1168.96C1368.1 1168.96 1415.21 1020.01 1297.47 1062.34Z" fill="#0B4870"/>
<path d="M1344.46 829.559C1344.46 829.559 1324.06 839.192 1316.99 840.617C1309.9 842.03 1282.42 877.726 1277.6 890.754C1272.78 903.795 1277.6 923.346 1287.51 946.299C1297.42 969.252 1288.08 976.903 1292.62 999.85C1297.15 1022.8 1301.12 1071.39 1300.26 1084.14C1299.41 1096.89 1414.85 1099.3 1441.2 1076.07C1441.2 1076.07 1414.71 1036.41 1411.31 1030.73C1407.92 1025.06 1410.74 994.187 1413.86 986.252C1416.97 978.322 1437.73 910.857 1437.73 910.857C1437.73 910.857 1454.69 859.048 1439.37 847.135C1426.05 836.792 1389.76 833.106 1383.25 830.845C1376.74 828.558 1357.78 827.577 1344.46 829.559Z" fill="#F7F7F7"/>
<path d="M1337.95 875.034L1325.55 860.523L1336.32 822.313C1336.32 822.307 1339.93 843.587 1337.95 875.034Z" fill="#CFC3BC"/>
<path d="M1334.72 806.03C1334.72 806.03 1338.81 843.449 1337.95 855.622C1337.95 855.622 1359.14 876.871 1383.25 830.832C1383.25 830.832 1373.09 811.857 1380.74 786.003C1388.38 760.149 1334.72 806.03 1334.72 806.03Z" fill="#DBA585"/>
<path d="M1337.95 855.621V875.034L1362.34 856.812L1337.95 855.621Z" fill="#DBA585"/>
<path d="M1337.95 875.034L1348.07 862.5L1382.18 828.495L1393.23 839.123L1337.95 875.034Z" fill="#CFC3BC"/>
<path d="M1386.93 831.75C1386.93 831.75 1358.29 875.205 1356.93 894.332C1355.57 913.447 1367.57 1056.52 1377.18 1102.5C1386.79 1148.48 1456.28 1097.32 1456.28 1097.32C1456.28 1097.32 1409.58 1021.73 1427.51 961.221C1445.43 900.691 1451.94 876.522 1451.94 876.522C1451.94 876.522 1445.78 842.815 1423.92 838.077C1404.76 833.91 1386.93 831.75 1386.93 831.75Z" fill="#0E538C"/>
<path d="M1275.72 896.554C1275.72 896.554 1270.56 914.839 1290.67 955.241C1290.67 955.241 1290.35 1006.92 1289.78 1023.07C1289.22 1039.22 1285.4 1100.28 1285.4 1100.28L1305.29 1111.95C1309.3 1114.28 1314.26 1111.03 1313.71 1106.42C1308.06 1059.94 1289.74 883.653 1329.33 836.265L1313.44 840.952C1313.44 840.952 1285.21 864.057 1275.72 896.554Z" fill="#0E538C"/>
<path d="M1370.29 748.299C1372.05 743.834 1377.93 742.586 1381.33 745.133C1384.73 747.679 1386.72 755.323 1381.33 765.248C1375.96 775.166 1356.98 782.083 1370.29 748.299Z" fill="#DBA585"/>
<path d="M1325.55 860.523L1309.94 864.837L1336.32 822.307L1325.55 860.523Z" fill="#D3D3D3"/>
<path d="M1348.07 862.5L1362.34 881.203L1391.63 832.365L1382.18 828.495L1348.07 862.5Z" fill="#D3D3D3"/>
<path d="M1335.57 814.257L1336.27 821.769C1336.27 821.769 1353.11 824.923 1375.15 798.018C1375.15 798.011 1359.53 817.088 1335.57 814.257Z" fill="#997761"/>
<path d="M1213.99 1202.19C1213.99 1202.19 1217.68 1187.82 1222.3 1185.69C1226.91 1183.55 1225.87 1188.79 1225.87 1188.79C1225.87 1188.79 1226.81 1183.59 1231.11 1183.87C1235.4 1184.17 1233.86 1190.26 1233.86 1190.26C1233.86 1190.26 1235.65 1186.48 1239.73 1188.34C1243.8 1190.15 1241.35 1194.93 1241.35 1194.93C1241.35 1194.93 1246.86 1191 1248.19 1196.35C1250.43 1205.4 1243.64 1213.92 1243.64 1213.92C1243.64 1213.92 1241.53 1215.85 1237.73 1213.8C1237.73 1213.8 1233.32 1218.7 1228.32 1213.27C1228.32 1213.27 1220.99 1215.22 1220.27 1209.12C1220.27 1209.12 1211.82 1210.45 1213.99 1202.19Z" fill="#EBB18F"/>
<path d="M1365.36 1013.38L1397.77 961.075C1397.77 961.075 1370.14 993.718 1367.26 997.221C1364.38 1000.72 1364.13 1000.98 1364.13 1000.98C1364.13 1000.98 1364.96 1011.61 1365.36 1013.38Z" fill="#2F386C"/>
<path d="M1161.57 1001.27C1159.39 999.361 1157.1 997.182 1154.21 997.087C1150.79 996.96 1148.1 999.772 1145.22 1001.63C1141.16 1004.22 1136.23 1005.05 1131.99 1007.32C1127.01 1009.98 1123.11 1014.76 1121.83 1020.27C1120.55 1025.77 1122.02 1031.92 1125.91 1036.03C1127.87 1038.09 1130.38 1039.66 1131.94 1042.04C1133.34 1044.15 1133.85 1046.74 1135.13 1048.94C1136.39 1051.14 1138.98 1053 1141.35 1052.11C1142.8 1051.57 1143.71 1050.23 1144.71 1049.05C1148.69 1044.39 1154.9 1042.19 1160.98 1041.38C1167.06 1040.58 1173.24 1040.97 1179.34 1040.46C1182.5 1040.19 1186.09 1039.36 1187.54 1036.54C1189.13 1033.45 1187.23 1029.77 1185.37 1026.82C1180.6 1019.2 1186.86 1016.21 1182.08 1008.61C1180.45 1008.62 1168.06 1004.59 1166.41 1004.17C1164.59 1003.71 1162.97 1002.47 1161.57 1001.27Z" fill="#F2B793"/>
<path d="M1121.94 1019.84C1123.73 1015.78 1126.2 1013.13 1128.26 1010.83C1130.39 1008.44 1132.84 1007.51 1135.68 1006.03C1137.32 1005.19 1139.11 1004.5 1140.95 1004.62C1143.14 1004.76 1144.41 1005.02 1146.24 1006.25C1148.06 1007.49 1150.79 1008.73 1152.98 1008.86C1155.18 1009.01 1158.63 1007.94 1158.76 1005.75C1158.84 1004.37 1156.22 1003.06 1155.32 1002.02C1151.59 997.677 1146.13 994.377 1140.81 994.377C1138.44 994.377 1135.21 995.789 1132.29 996.651C1130.26 997.246 1127.95 997.689 1125.93 998.297C1120.59 999.868 1115.1 1002.03 1110.68 1005.42C1107.74 1007.67 1100.53 1016.31 1105.43 1019.66C1110.16 1022.89 1119.77 1024.71 1121.94 1019.84Z" fill="#F4A086"/>
<path d="M1163 1041.16C1158.16 1048.54 1152.88 1051.01 1144.31 1053.1C1143.2 1053.37 1141.86 1053.55 1141.01 1052.75C1140.62 1052.38 1140.31 1051.77 1140.04 1051.3C1139.81 1050.94 1139.67 1050.54 1139.68 1050.13C1139.69 1049.73 1140 1049.14 1140.32 1048.88C1140.8 1048.49 1141.51 1048.51 1141.87 1047.96C1142.17 1047.52 1142.24 1047.07 1142.41 1046.53C1142.78 1045.43 1143.32 1044.44 1144.39 1043.85C1145.7 1043.15 1147.17 1043.98 1148.26 1042.37C1148.65 1041.76 1149.26 1040.87 1149.94 1040.61C1152.04 1039.78 1152.99 1041.07 1154.25 1040.18C1154.83 1039.78 1155.18 1038.69 1155.89 1038.33C1156.66 1037.94 1157.06 1037.84 1157.91 1037.76C1159.9 1037.57 1163.67 1038.53 1163 1041.16Z" fill="#F4A086"/>
<path d="M1380.95 909.494C1388.29 893.179 1384.67 869.041 1406.5 856.672C1423.02 847.305 1426.43 834.948 1439.37 847.121C1452.3 859.307 1454.89 887.991 1451.72 904.098C1448.08 922.49 1430.91 981.526 1420.67 995.403C1410.27 1009.49 1404.82 1017.65 1386.99 1024.71C1372.6 1030.41 1351.16 1030.93 1334.19 1032.64C1325.08 1033.56 1315.93 1034.37 1306.78 1035.09C1298.48 1035.73 1236.93 1038.86 1227.83 1040.02C1226.09 1040.24 1198.54 1039.47 1196.9 1038.92C1194.5 1038.13 1188.91 1038.36 1187.54 1036.53C1183.76 1031.47 1183.15 1027.27 1183.15 1027.27L1180.91 1002.03C1181.86 1001.79 1225.45 999.374 1226.91 999.348C1231.54 999.247 1253.78 998.728 1288.26 994.351C1293.07 993.73 1335.74 988.822 1340.03 987.226C1343.57 985.915 1353.32 983.02 1354.41 979.176C1354.41 979.176 1361.52 972.494 1365.65 961.081C1370.4 947.901 1375.17 922.383 1380.95 909.494Z" fill="#0E538C"/>
<path d="M782.252 1612.13C782.252 1612.13 774.767 1626.13 769.865 1631.65C764.983 1637.21 732.863 1666 732.762 1682.48C732.654 1700.34 768.637 1685.84 790.137 1675.85C801.39 1670.62 803.467 1665.65 808.692 1655.54C813.91 1645.42 819.172 1647.13 820.154 1638.98C821.135 1630.82 815.1 1612.13 815.1 1612.13H782.252V1612.13Z" fill="#0B4870"/>
<path d="M970.989 1610.52C970.989 1610.52 986.263 1627.58 1001.77 1631.15C1017.28 1634.73 1042.1 1650.57 1042.23 1660.36C1042.34 1670.16 983.61 1665.3 965.859 1655.44C939.375 1640.7 936.684 1645.16 933.739 1637.79C930.807 1630.43 937.273 1610.73 937.077 1608.4C936.855 1605.5 970.989 1610.52 970.989 1610.52Z" fill="#0B4870"/>
<path d="M969.266 1602.36C969.266 1602.36 971.292 1610.35 970.988 1610.52C970.684 1610.68 936.031 1614.81 937.083 1608.4C937.937 1603.2 939.141 1597.54 939.141 1597.54L969.266 1602.36Z" fill="#807F7D"/>
<path d="M814.657 1606.75C814.657 1606.75 816.108 1614.38 815.835 1614.55C815.55 1614.73 780.695 1620.96 780.885 1614.64C781.037 1609.6 784.102 1603.75 784.102 1603.75L814.657 1606.75Z" fill="#807F7D"/>
<path d="M937.76 1123.93C937.76 1123.93 950.362 1246.32 956.923 1288.23C964.573 1337.23 967.176 1377.7 969.31 1403.05C971.995 1434.94 972.515 1591.84 974.408 1601.16C976.283 1610.49 932.656 1603.74 932.656 1603.74C932.656 1603.74 911.2 1398.74 903.19 1364.78C895.742 1333.15 868.068 1196.99 861.273 1205.62C854.471 1214.27 846.042 1364.53 840.995 1389.47C835.961 1414.41 820.642 1609.69 820.642 1609.69C820.642 1609.69 785.925 1616.61 776.686 1608.78C776.686 1608.78 772.487 1440.5 775.692 1393.73C776.92 1375.91 754.812 1180.03 783.158 1101.19C798.135 1059.52 937.76 1123.93 937.76 1123.93Z" fill="#0E538C"/>
<path d="M824.644 1096.8C824.644 1096.8 833.054 1084.09 841.945 1082.45C850.856 1080.82 719.292 1017.21 719.647 994.485C719.913 976.055 765.711 942.062 765.711 942.062C765.711 942.062 765.699 942.012 765.711 942.062C765.724 942.088 765.711 941.739 765.711 941.752C765.711 941.777 765.711 941.727 765.711 941.752C766.712 945.4 781.67 999.844 782.139 1024.1C782.645 1049.28 780.638 1135.9 780.638 1135.9L814.36 1144.93L922.068 1145.93L946.658 1135.9C946.658 1135.9 943.966 1108.06 942.972 1088.49C942.345 1076.06 939.939 1053.79 940.559 1032.11C940.559 1032.11 940.16 1009.25 942.428 999.4C942.668 955.958 945.303 912.934 945.303 912.934C946.759 893.231 947.779 874.806 948.355 857.63C943.599 855.121 937.9 852.176 933.308 850.01C919.174 843.271 899.453 834.189 886.8 828.375C879.391 824.986 872.146 822.497 872.146 822.497C872.146 822.497 821.592 817.646 817.482 817.905C816.19 817.994 809.876 820.179 801.58 823.346C783.652 830.148 749.1 844.006 743.585 847.964C735.51 853.728 682.67 993.561 681.903 1003.18C680.516 1020.49 824.644 1096.8 824.644 1096.8Z" fill="#F7F7F7"/>
<path d="M943.409 1126.72C943.409 1126.72 869.417 1133.01 804.626 1126.72V1147.98C804.626 1147.98 901.125 1157.19 946.657 1143.92L943.409 1126.72Z" fill="#0E538C"/>
<path d="M880.303 825.588C880.303 825.588 892.335 853.867 901.366 917.064C904.836 941.334 911.27 982.204 915.944 1023.92C919.63 1056.79 928.033 1090.55 930.712 1115.7C933.486 1141.78 941.82 1218.6 941.82 1218.6L962.053 1205.83C964.953 1203.16 969 1199.69 967.822 1195.94C962.262 1177.96 951.597 1118.56 945.315 1066.78C945.315 1066.74 945.296 1066.7 945.296 1066.66C944.999 1064.16 944.707 1061.69 944.422 1059.24C944.403 1059.11 944.397 1058.98 944.378 1058.85C943.188 1048.49 942.206 1038.57 941.503 1029.48C940.965 1022.52 941.446 1015.71 942.409 1009.05C945.22 962.564 946.626 913.58 946.626 913.58C948.114 893.503 948.963 874.762 949.533 857.306C949.539 857.319 886.053 827.304 880.303 825.588Z" fill="#0B4870"/>
<path d="M734.756 988.069C725.966 1007.3 815.278 1041.62 813.264 1046.36C808.426 1057.74 788.718 1080.94 788.718 1080.94C788.718 1080.94 671.15 1022.76 672.473 1009.59C673.423 999.989 728.506 854.836 736.574 849.047C741.235 845.709 775.761 833.46 792.708 826.766C795.811 825.543 806.38 821.585 809.154 820.521C812.751 824.53 837.525 851.866 846.277 955.185C847.746 972.602 843.091 1009.46 839.982 1039.56C836.67 1071.67 832.99 1096.73 830.299 1123.59C824.998 1176.49 821.287 1218.6 821.287 1218.6L768.637 1195.15C760.125 1190.89 745.383 1179.75 748.593 1170.79C760.765 1136.69 779.029 1072.08 779.041 1042.17C779.041 1042.17 770.441 959.612 765.781 943.519C765.774 943.525 744.566 966.548 734.756 988.069Z" fill="#0B4870"/>
<path d="M822.149 823.288C822.149 823.288 821.801 805.922 815.126 770.815C813.334 761.403 869.689 795.541 869.689 795.541C869.689 795.541 869.512 798.841 869.398 803.287C869.335 805.637 869.297 808.309 869.316 810.969C869.322 811.919 869.335 812.851 869.354 813.775C869.404 816.264 869.518 818.639 869.734 820.666C869.943 822.756 871.184 826.417 871.608 827.431C873.939 832.801 841.141 836.867 822.149 823.288Z" fill="#DBA686"/>
<path opacity="0.9" d="M857.334 841.471L866.675 854.025C866.675 854.025 861.203 861.346 851.482 855.944L857.334 841.471Z" fill="#FFBE55"/>
<path opacity="0.9" d="M864.173 854.531C864.173 854.531 899.605 990.963 892.297 1097.16L880.379 1118.17L869.22 1096.16C869.22 1096.16 860.76 906.201 851.052 854.196L864.173 854.531Z" fill="#FFBE55"/>
<path d="M867.333 829.767L857.334 841.471C857.334 841.471 841.28 838.355 836.569 829.982C831.851 821.59 867.333 829.767 867.333 829.767Z" fill="#DBA686"/>
<path d="M869.633 819.526C869.633 819.526 868.467 828.444 857.341 841.472L869.493 857.813L876.073 823.928L869.633 819.526Z" fill="#D3D3D3"/>
<path d="M821.085 809.595C821.085 809.595 841.097 835.056 857.34 841.472L849.792 860.137L815.303 818.436L821.085 809.595Z" fill="#D3D3D3"/>
<path d="M1116.76 1029.22C1116.76 1029.22 1025.7 1016.47 1005.5 1011.5C996.149 1009.21 983.857 996.309 972.154 981.14C968.303 976.143 964.516 970.911 960.926 965.711C960.919 965.711 960.919 965.686 960.919 965.686C946.576 944.975 935.335 925.126 935.335 925.126C935.335 925.126 892.937 875.433 926.963 853.278C926.963 853.278 941.547 852.955 949.539 857.312C957.766 861.765 975.308 898.392 978.278 904.877C981.26 911.357 1013.48 971.576 1015.63 972.938C1017.79 974.287 1049.95 981.273 1064.28 984.269C1085.05 988.601 1124.05 996.702 1124.05 996.702L1116.76 1029.22Z" fill="#0B4870"/>
<path d="M831.046 1098.36C831.046 1098.36 826.74 1098.19 824.897 1097.2C824.897 1097.2 821.68 1095.13 819.305 1093.81C818.545 1093.39 817.874 1093.04 817.424 1092.86C815.525 1092.12 811.13 1091.01 807.07 1087.92C803.024 1084.85 789.813 1072.48 789.813 1072.48L798.35 1059.36L802.283 1046.36C802.283 1046.36 833.079 1049.41 837.195 1051.86C837.588 1052.11 837.981 1052.35 838.323 1052.61C841.609 1055.01 843.034 1058.19 844.605 1059.64C845.187 1060.18 850.539 1065.92 850.254 1068.25C849.836 1071.49 848.246 1073.55 846.232 1074.54C846.232 1074.54 845.149 1080.82 841.894 1083.65C841.894 1083.65 841.071 1089.48 836.03 1091.84C836.037 1091.84 834.548 1097.67 831.046 1098.36Z" fill="#DCA787"/>
<path d="M788.718 1080.94C788.718 1080.94 805.849 1066.88 815.126 1046.36L762.57 1017.57L743.065 1057.29L788.718 1080.94Z" fill="#0B4870"/>
<path d="M899.371 709.119C899.371 709.119 911.745 732.091 905.602 735.65C900.536 738.595 911.542 761.13 912.986 764.81C914.43 768.496 903.804 771.169 901.543 773.544C899.288 775.906 892.601 805.066 883.843 805.928C875.097 806.821 835.663 793.102 824.922 781.93C814.195 770.77 805.386 720.336 812.548 699.074C819.717 677.799 877.51 669.015 899.371 709.119Z" fill="#DBA585"/>
<path d="M901.834 714.104C901.834 714.104 905.311 701.348 905.311 676.496C905.311 665.298 826.24 684.799 821.465 686.034C816.69 687.269 789.63 689.125 803.29 736.664C815.031 777.472 816.671 779.182 816.671 779.182C816.671 779.182 825.429 755.557 830.394 751.941C838.152 746.31 855.136 747.66 855.136 747.66C855.136 747.66 847.037 726.157 859.702 723.117C872.342 720.083 889.029 709.341 901.834 714.104Z" fill="#0B4870"/>
<path d="M844.117 741.768C842.997 738.811 839.381 726.131 828.514 733.579C817.634 741.027 835.283 764.924 837.177 765.234C839.083 765.532 853.515 766.583 844.117 741.768Z" fill="#DBA585"/>
<path d="M869.322 810.963C869.328 811.914 869.341 812.845 869.36 813.769C837.119 802.945 830.875 786.668 830.875 786.668C840.932 793.781 869.404 803.281 869.404 803.281C869.341 805.637 869.303 808.303 869.322 810.963Z" fill="#997761"/>
<path d="M491.381 824.51C491.381 824.51 512.393 837.076 517.466 856.799C522.551 876.503 516.94 901.305 516.345 910.014C515.737 918.722 520.987 1005.15 522.532 1007.87C524.052 1010.6 545.089 1051.97 554.038 1079.8C562.967 1107.64 585.518 1146.94 585.518 1146.94L551.948 1161.4C551.948 1161.4 486.169 1057.73 481.926 1028.86C477.386 998.05 458.324 906.644 458.324 906.644C458.324 906.644 441.833 828.393 491.381 824.51Z" fill="#D3D3D3"/>
<path d="M520.594 678.952C536.838 678.616 572.593 687.794 576.931 730.957C576.931 730.957 575.303 742.51 572.238 751.541C569.173 760.573 576.576 787.662 574.41 788.922C572.238 790.182 563.391 791.633 563.391 791.633C563.391 791.633 553.101 820.704 542.81 820.159C532.519 819.627 493.756 810.475 476.43 773.449C459.078 736.423 455 680.276 520.594 678.952Z" fill="#EEA886"/>
<path d="M1350.7 686.04C1335.55 685.717 1302.21 694.293 1298.17 734.543C1298.17 734.543 1299.68 745.316 1302.54 753.74C1305.4 762.151 1298.5 787.409 1300.52 788.6C1302.54 789.778 1310.8 791.12 1310.8 791.12C1310.8 791.12 1320.4 818.234 1329.99 817.728C1339.59 817.221 1375.74 808.683 1391.9 774.159C1408.08 739.641 1411.89 687.275 1350.7 686.04Z" fill="#DEA787"/>
<path d="M576.931 730.958C576.931 730.958 550.086 748.179 523.843 751.06C497.606 753.955 480.147 780.467 480.147 780.467C480.147 780.467 441.758 729.393 474.979 689.916C508.195 650.414 584.03 680.992 576.931 730.958Z" fill="#0E538C"/>
<path d="M492.445 705.041C481.211 720.85 462.434 726.79 450.522 718.303C438.591 709.829 438.053 690.138 449.287 674.342C460.541 658.546 479.311 652.593 491.229 661.067C503.135 669.548 503.686 689.245 492.445 705.041Z" fill="#0E538C"/>
<path d="M484.859 820.159C487.379 806.789 484.859 787.466 484.859 787.466C484.859 787.466 533.729 810.051 525.262 816.176C523.065 817.772 521.532 820.837 520.494 824.511C517.504 834.929 518.347 850.206 518.347 850.206L534.559 869.517C548.864 889.157 483.637 826.664 484.859 820.159Z" fill="#EEA886"/>
<path d="M513.02 749.559C513.02 744.486 507.599 736.747 499.114 743.41C490.621 750.104 501.089 774.469 507.954 772.303C514.812 770.144 513.02 754.791 513.02 749.559Z" fill="#EEA886"/>
<path d="M525.262 816.176C523.064 817.772 521.532 820.837 520.493 824.511C501.539 813.155 492.217 796.111 491.932 795.579C502.274 808.329 525.262 816.176 525.262 816.176Z" fill="#A77860"/>
<path opacity="0.9" d="M1270.55 668.04H1140.37C1120.67 668.04 1104.55 651.921 1104.55 632.217V572.517C1104.55 552.813 1120.67 536.682 1140.37 536.682H1270.55C1290.24 536.682 1306.37 552.813 1306.37 572.517V632.217C1306.37 651.921 1290.24 668.04 1270.55 668.04Z" fill="#FFBE55"/>
<path d="M1268.28 585.121H1142.9C1140.23 585.121 1138.07 582.955 1138.07 580.269C1138.07 577.609 1140.23 575.43 1142.9 575.43H1268.28C1270.95 575.43 1273.13 577.609 1273.13 580.269C1273.12 582.955 1270.95 585.121 1268.28 585.121Z" fill="white"/>
<path d="M1268.28 608.859H1142.9C1140.23 608.859 1138.07 606.693 1138.07 604.008C1138.07 601.335 1140.23 599.169 1142.9 599.169H1268.28C1270.95 599.169 1273.13 601.335 1273.13 604.008C1273.12 606.693 1270.95 608.859 1268.28 608.859Z" fill="white"/>
<path d="M1268.28 632.597H1142.9C1140.23 632.597 1138.07 630.431 1138.07 627.758C1138.07 625.073 1140.23 622.919 1142.9 622.919H1268.28C1270.95 622.919 1273.13 625.073 1273.13 627.758C1273.12 630.431 1270.95 632.597 1268.28 632.597Z" fill="white"/>
<path opacity="0.9" d="M1210.12 725.664L1154.39 664.513H1202.21L1210.12 725.664Z" fill="#FFBE55"/>
<path opacity="0.9" d="M871.975 580.547H1002.15C1021.85 580.547 1037.98 564.428 1037.98 544.712V485.012C1037.98 465.321 1021.85 449.189 1002.15 449.189H871.975C852.28 449.189 836.15 465.321 836.15 485.012V544.712C836.144 564.428 852.274 580.547 871.975 580.547Z" fill="#FFBE55"/>
<path d="M874.236 497.628H999.613C1002.29 497.628 1004.45 495.462 1004.45 492.776C1004.45 490.116 1002.29 487.925 999.613 487.925H874.236C871.564 487.925 869.398 490.116 869.398 492.776C869.398 495.462 871.564 497.628 874.236 497.628Z" fill="white"/>
<path d="M874.236 521.366H999.613C1002.29 521.366 1004.45 519.187 1004.45 516.515C1004.45 513.842 1002.29 511.676 999.613 511.676H874.236C871.564 511.676 869.398 513.842 869.398 516.515C869.398 519.187 871.564 521.366 874.236 521.366Z" fill="white"/>
<path d="M874.236 545.104H999.613C1002.29 545.104 1004.45 542.926 1004.45 540.266C1004.45 537.58 1002.29 535.414 999.613 535.414H874.236C871.564 535.414 869.398 537.58 869.398 540.266C869.398 542.926 871.564 545.104 874.236 545.104Z" fill="white"/>
<path opacity="0.9" d="M932.402 638.163L988.125 577.006H940.312L932.402 638.163Z" fill="#FFBE55"/>
<path d="M591.49 1010.74C591.49 1010.74 595.075 994.352 594.334 990.564C593.606 986.79 598.849 984.104 599.508 993.408C600.173 1002.72 600.489 1008.65 600.489 1008.65L591.49 1010.74Z" fill="#EEA886"/>
<path opacity="0.9" d="M635.148 1047.93H600.964L595.625 972.209H639.967L635.148 1047.93Z" fill="#FFBE55"/>
<path d="M590.122 1014.61C590.122 1014.61 589.844 1008.8 601.135 1003.97C616.131 997.556 636.06 991.223 639.341 993.205C644.052 996.049 641.418 999.628 631.988 1002.31C622.571 1005 619.456 1005.85 619.456 1005.85C619.456 1005.85 637.726 1004.87 641.715 1007.22C645.705 1009.55 645.724 1014.59 642.716 1015.29C639.695 1015.99 632.64 1016.22 632.64 1016.22C632.64 1016.22 640.347 1016.81 640.987 1019.95C641.462 1022.25 641.614 1025.56 634.255 1026.62C634.255 1026.62 638.992 1032.31 631.418 1035.54C623.844 1038.76 610.273 1041.42 603.465 1042.26C589.337 1043.99 562.682 1039.38 562.682 1039.38L571.599 1019.47C571.599 1019.47 579.173 1021.72 584.29 1019.7C590.92 1017.11 590.122 1014.61 590.122 1014.61Z" fill="#EEA886"/>
<path d="M487.734 820.173C487.734 820.173 516.624 847.622 527.459 859.89C538.288 872.171 573.682 916.595 576.931 929.952C580.186 943.31 567.299 962.608 558.515 971.849C550.447 980.336 557.065 1000.01 555.995 1011.21C554.912 1022.41 550.878 1134.75 546.901 1145.96C542.93 1157.16 442.018 1168.49 406.991 1130.56C406.991 1130.56 444.76 1049.14 455.595 1036.49C466.43 1023.84 447.293 942.943 440.789 923.796C434.285 904.669 446.571 819.451 487.734 820.173Z" fill="#F7F7F7"/>
<path d="M490.387 836.298C483.105 833.936 461.744 836.767 458.115 858.687C454.512 880.595 453.062 904.916 449.699 916.703C446.33 928.502 430.321 995.055 437.54 999.387C444.76 1003.72 459.54 1008.38 476.525 1017.3C492.787 1025.85 571.858 1059.05 571.858 1059.05L578.014 1017.6C578.014 1017.6 562.853 1013.99 549.124 1007.24C535.401 1000.5 507.232 982.439 481.965 966.788C481.965 966.788 492.794 923.207 496.163 914.068C499.525 904.916 523.128 846.888 490.387 836.298Z" fill="#D3D3D3"/>
<path d="M641.437 967.694H594.163V976.726H641.437V967.694Z" fill="#0B4870"/>
<path d="M1573.18 1595.05C1573.18 1595.05 1562.82 1602.44 1557.08 1607.62C1551.34 1612.79 1543.54 1618.43 1538.76 1631.64C1533.92 1645.01 1524.36 1664.91 1537.3 1665.71C1550.25 1666.49 1587.29 1646.43 1589.21 1634.57C1591.13 1622.83 1606.34 1624.22 1608.32 1615.87C1610.3 1607.51 1607.65 1597.24 1607.65 1597.24L1573.18 1595.05Z" fill="#2A94F4"/>
<path d="M1574.9 1585.34L1573.19 1595.05C1573.19 1595.05 1578.52 1604.93 1607.65 1597.24L1606.15 1587.68L1574.9 1585.34Z" fill="#81807E"/>
<path d="M1607.65 1597.24C1607.65 1597.24 1601.09 1598.11 1596.41 1598.85C1591.74 1599.57 1582.48 1593.6 1573.19 1595.05L1576.04 1606.85C1576.03 1606.85 1607 1601.05 1607.65 1597.24Z" fill="#0B4870"/>
<path d="M1759.34 1593.11C1759.34 1593.11 1769.7 1600.51 1775.43 1605.68C1781.17 1610.85 1788.98 1616.5 1793.76 1629.7C1798.59 1643.07 1797.73 1664.93 1784.79 1665.73C1771.84 1666.52 1745.23 1644.5 1743.3 1632.65C1741.38 1620.91 1726.19 1622.28 1724.2 1613.95C1722.21 1605.59 1724.86 1595.31 1724.86 1595.31L1759.34 1593.11Z" fill="#2A94F4"/>
<path d="M1757.61 1583.41L1759.33 1593.11C1759.33 1593.11 1753.99 1602.98 1724.86 1595.3L1726.36 1585.74L1757.61 1583.41Z" fill="#81807E"/>
<path d="M1771.56 1362.54C1771.56 1383.89 1768.51 1585.17 1768.51 1585.17C1766.37 1592.28 1726.51 1594.62 1719.4 1591.06C1712.29 1587.5 1713.54 1387.9 1712.22 1366.39C1710.91 1344.88 1693.62 1186.59 1687.39 1187.32C1681.16 1188.02 1645.9 1337.12 1640.93 1353.47C1635.95 1369.82 1616.36 1589.92 1616.36 1589.92C1592.03 1598.38 1567.17 1590.94 1567.17 1590.94C1567.17 1590.94 1576.47 1368.04 1576.47 1341.57C1576.48 1331.73 1579.37 1324.31 1582.16 1272.08C1584.28 1232.28 1595.36 1150.7 1602.77 1094.57C1603.03 1092.58 1603.28 1090.67 1603.54 1088.82C1604.98 1077.9 1606.06 1069.87 1606.59 1066.03C1606.82 1064.36 1606.95 1063.48 1606.95 1063.48C1608.93 1062.55 1611.04 1061.71 1613.21 1060.92C1665.28 1042.21 1765.73 1062.02 1765.73 1062.02C1765.73 1062.02 1765.79 1062.51 1765.9 1063.44C1766.04 1064.57 1766.25 1066.34 1766.52 1068.62C1767.09 1073.57 1767.96 1080.94 1768.95 1089.51C1768.96 1089.57 1768.96 1089.63 1768.97 1089.69C1768.99 1089.94 1769.03 1090.21 1769.06 1090.47C1772.57 1120.9 1774.3 1137.62 1777.06 1170.11C1777.66 1177.23 1771.56 1341.22 1771.56 1362.54Z" fill="#D3D3D3"/>
<path d="M1724.86 1595.3C1724.86 1595.3 1731.43 1596.17 1736.1 1596.91C1740.77 1597.64 1750.03 1591.66 1759.33 1593.11L1756.47 1604.92C1756.48 1604.93 1725.51 1599.13 1724.86 1595.3Z" fill="#0B4870"/>
<path d="M1297.92 728.627C1297.92 728.627 1295.68 678.319 1345.69 676.546C1395.68 674.804 1409.15 715.985 1405.05 745.981C1400.96 776.002 1380.26 791.823 1380.26 791.823C1380.26 791.823 1382.04 767.54 1372.34 761.232C1362.64 754.924 1323.75 742.358 1306.8 713.11C1306.8 713.116 1298.94 722.344 1297.92 728.627Z" fill="#0E538C"/>
<path d="M1726.05 1059.93C1726.05 1059.93 1717.64 1047.21 1708.74 1045.58C1699.83 1043.94 1831.4 980.336 1831.04 957.624C1830.78 939.18 1784.98 905.201 1784.98 905.201C1784.98 905.201 1785 905.15 1784.98 905.201C1784.97 905.213 1784.98 904.865 1784.98 904.878C1784.98 904.916 1784.98 904.852 1784.98 904.878C1783.98 908.526 1769.03 962.969 1768.56 987.227C1768.05 1012.42 1770.05 1099.04 1770.05 1099.04L1736.34 1108.07L1628.63 1109.06L1604.04 1099.04C1604.04 1099.04 1606.73 1071.18 1607.72 1051.61C1608.34 1039.18 1610.75 1016.91 1610.14 995.232C1610.14 995.232 1610.53 972.374 1608.27 962.538C1608.02 919.096 1605.39 876.06 1605.39 876.06C1603.93 856.369 1602.91 837.944 1602.34 820.768C1607.1 818.26 1612.8 815.315 1617.38 813.136C1631.52 806.397 1651.24 797.314 1663.89 791.5C1671.3 788.112 1678.54 785.623 1678.54 785.623C1678.54 785.623 1729.1 780.784 1733.21 781.044C1734.5 781.132 1740.81 783.317 1749.11 786.471C1767.04 793.274 1801.6 807.132 1807.11 811.09C1815.18 816.866 1868.03 956.699 1868.79 966.313C1870.18 983.629 1726.05 1059.93 1726.05 1059.93Z" fill="#CCE9FF"/>
<path d="M1601.16 817.803C1601.73 835.271 1602.58 854.012 1604.06 874.077C1604.06 874.077 1605.46 923.074 1608.28 969.562C1609.23 976.219 1609.72 983.021 1609.19 989.975C1608.48 999.07 1607.5 1008.99 1606.31 1019.36C1606.29 1019.48 1606.28 1019.62 1606.27 1019.74C1605.98 1022.21 1605.68 1024.66 1605.39 1027.17C1605.39 1027.2 1605.37 1027.24 1605.37 1027.28C1599.09 1079.06 1588.43 1138.48 1582.86 1156.44C1581.68 1160.2 1585.74 1163.67 1588.63 1166.35L1608.87 1179.1C1608.87 1179.1 1617.2 1102.28 1619.97 1076.21C1622.65 1051.04 1631.06 1017.31 1634.75 984.433V984.421C1639.41 942.708 1634.09 905.485 1637.56 881.215C1646.59 818.006 1670.39 786.097 1670.39 786.097C1664.64 787.795 1601.16 817.803 1601.16 817.803Z" fill="#0B4870"/>
<path d="M1815.94 948.573C1824.72 967.808 1735.42 1002.11 1737.43 1006.85C1742.27 1018.24 1761.97 1041.44 1761.97 1041.44C1761.97 1041.44 1879.54 983.268 1878.22 970.081C1877.27 960.48 1822.19 815.327 1814.12 809.538C1809.46 806.2 1774.93 793.951 1757.98 787.256C1754.88 786.047 1744.32 782.076 1741.54 781.024C1737.94 785.021 1713.17 812.369 1704.41 915.689C1702.94 933.093 1707.61 969.967 1710.71 1000.06C1714.02 1032.16 1717.71 1057.23 1720.39 1084.09C1725.7 1136.98 1729.41 1179.09 1729.41 1179.09L1782.06 1155.65C1790.57 1151.38 1805.31 1140.26 1802.1 1131.29C1789.93 1097.2 1771.67 1032.59 1771.65 1002.66C1771.65 1002.66 1780.25 920.103 1784.91 904.009C1784.92 904.016 1806.13 927.051 1815.94 948.573Z" fill="#0B4870"/>
<path d="M1728.53 783.773C1728.53 783.773 1728.88 766.406 1735.56 731.299C1737.36 721.9 1680.99 756.025 1680.99 756.025C1680.99 756.025 1681.17 759.325 1681.29 763.784C1681.36 766.121 1681.39 768.794 1681.37 771.454C1681.37 772.404 1681.36 773.348 1681.34 774.26C1681.28 776.749 1681.17 779.137 1680.95 781.151C1680.74 783.241 1679.51 786.914 1679.08 787.928C1676.76 793.286 1709.56 797.358 1728.53 783.773Z" fill="#FCD2B1"/>
<path opacity="0.9" d="M1693.36 801.962C1693.36 801.962 1651.08 951.46 1658.39 1057.66L1670.31 1078.67L1681.48 1056.65C1681.48 1056.65 1689.93 866.692 1699.64 814.699L1693.36 801.962Z" fill="#FFBE55"/>
<path d="M1683.36 790.272L1693.36 801.964C1693.36 801.964 1709.41 798.86 1714.13 790.474C1718.84 782.082 1683.36 790.272 1683.36 790.272Z" fill="#FCD2B1"/>
<path d="M1681.06 780.03C1681.06 780.03 1682.22 788.948 1693.35 801.963L1681.2 818.304L1674.62 784.419L1681.06 780.03Z" fill="#0B4870"/>
<path d="M1729.61 770.092C1729.61 770.092 1709.59 795.541 1693.35 801.957L1700.9 820.621L1735.39 778.934L1729.61 770.092Z" fill="#0B4870"/>
<path d="M1761.97 1041.44C1761.97 1041.44 1744.85 1027.38 1735.57 1006.85L1788.13 978.074L1807.63 1017.79L1761.97 1041.44Z" fill="#0B4870"/>
<path d="M1651.33 669.624C1651.33 669.624 1638.95 692.583 1645.09 696.149C1650.15 699.107 1639.15 721.642 1637.7 725.315C1636.26 728.988 1646.89 731.674 1649.15 734.036C1651.4 736.411 1658.1 765.558 1666.85 766.433C1675.6 767.313 1715.03 753.594 1725.77 742.435C1736.5 731.262 1745.31 680.841 1738.14 659.566C1730.98 638.292 1673.18 629.52 1651.33 669.624Z" fill="#FCD2B1"/>
<path d="M1648.86 674.595C1648.86 674.595 1623.7 649.134 1645.39 636.999C1707.28 602.361 1724.46 645.303 1729.23 646.525C1734 647.76 1761.06 649.616 1747.41 697.156C1735.67 737.975 1734.02 739.685 1734.02 739.685C1734.02 739.685 1725.26 716.049 1720.3 712.432C1712.54 706.802 1695.55 708.163 1695.55 708.163C1695.55 708.163 1703.65 686.661 1690.99 683.608C1678.35 680.568 1661.67 669.845 1648.86 674.595Z" fill="#0B4870"/>
<path d="M1706.57 702.254C1707.7 699.297 1711.31 686.629 1722.18 694.078C1733.06 701.526 1715.41 725.41 1713.51 725.72C1711.61 726.031 1697.18 727.082 1706.57 702.254Z" fill="#FCD2B1"/>
<path d="M1681.37 771.454C1681.37 772.404 1681.36 773.348 1681.34 774.26C1713.57 763.436 1719.82 747.171 1719.82 747.171C1709.76 754.284 1681.29 763.784 1681.29 763.784C1681.36 766.121 1681.39 768.794 1681.37 771.454Z" fill="#997761"/>
<path opacity="0.9" d="M1784.78 1045.26L1625.06 1152.87L1556 1050.33L1713.03 938.724L1784.78 1045.26Z" fill="#FFBE55"/>
<path d="M1771.84 1045.32L1629.98 1140.89L1568.64 1049.82L1708.12 950.701L1771.84 1045.32Z" fill="#F7F7F7"/>
<path d="M1749.34 1019.5L1759.29 1012.8L1734.49 975.997L1723.57 981.254L1749.34 1019.5Z" fill="#0B4870"/>
<path d="M1684.3 1125.05C1684.3 1125.05 1680.74 1122.88 1679.66 1121.18C1679.66 1121.18 1677.9 1117.89 1676.52 1115.67C1676.08 1114.96 1675.67 1114.36 1675.38 1113.97C1674.14 1112.45 1670.93 1109.46 1668.95 1104.93C1666.97 1100.41 1661.62 1083.75 1661.62 1083.75L1675.02 1076.66L1685.5 1070.95C1685.5 1070.95 1709.06 1084.62 1711.38 1088.63C1711.61 1089.02 1711.81 1089.42 1711.98 1089.81C1713.63 1093.36 1713.35 1096.72 1713.98 1098.7C1714.23 1099.43 1716.05 1106.81 1714.69 1108.63C1712.83 1111.16 1710.51 1112.18 1708.35 1112.04C1708.35 1112.04 1704.47 1116.86 1700.39 1117.72C1700.39 1117.72 1696.94 1122.26 1691.58 1121.87C1691.59 1121.88 1687.59 1126.11 1684.3 1125.05Z" fill="#EEA886"/>
<path d="M1663.55 1093.86C1663.55 1093.86 1570.65 1030.15 1558.33 1009.75C1552.63 1000.32 1557.56 975.306 1560.38 953.544C1561.3 946.381 1562.49 939.085 1563.79 931.96C1563.78 931.947 1563.8 931.934 1563.8 931.934C1568.97 903.547 1575.97 878.358 1575.97 878.358C1575.97 878.358 1581.94 803.768 1627.44 813.414C1627.44 813.414 1639.49 824.979 1642.44 834.986C1645.47 845.266 1630 889.132 1627.14 896.789C1624.31 904.446 1601.57 979.309 1602.22 982.147C1602.87 984.991 1627.77 1011.44 1639.66 1023.26C1661.79 1045.27 1692.24 1075.78 1692.24 1075.78L1663.55 1093.86Z" fill="#0B4870"/>
</svg>
