<svg width="748" height="748" viewBox="0 0 748 748" fill="none" xmlns="http://www.w3.org/2000/svg">
<rect width="748" height="748" fill="#F9F9F9"/>
<path d="M107 175C107 119.772 151.772 75 207 75H217C245.719 75 269 98.2812 269 127V666H159C130.281 666 107 642.719 107 614V175Z" fill="#7CA1FF"/>
<path d="M573.408 200.837C583.953 190.293 601.048 190.293 611.592 200.837L623.529 212.774C662.581 251.826 662.581 315.143 623.529 354.195L336.589 641.135C303.394 674.33 249.575 674.33 216.38 641.135L174.746 599.5L573.408 200.837Z" fill="#7CA1FF"/>
<path d="M566.902 183.467L574.955 191.521L281.008 485.468L272.955 477.415L566.902 183.467Z" fill="#7CA1FF"/>
</svg>
